<?xml version="1.0" encoding="utf-8"?>
<!-- Generator: Adobe Illustrator 22.0.1, SVG Export Plug-In . SVG Version: 6.00 Build 0)  -->
<svg version="1.1" id="Layer_1" xmlns="http://www.w3.org/2000/svg" xmlns:xlink="http://www.w3.org/1999/xlink" x="0px" y="0px"
	 viewBox="0 0 1920 1080" style="enable-background:new 0 0 1920 1080;" xml:space="preserve">
<style type="text/css">
	.st0{opacity:1;}
	.st1{fill:#E7E7E4;}
	.st2{fill:none;stroke:#DBDCDD;stroke-width:0.1;stroke-miterlimit:10;}
	.st3{fill:none;stroke:#CCCCCC;stroke-width:0.1;stroke-miterlimit:10;}
</style>
<g class="st0">
	<g>
		<g>
			<line class="st2" x1="24.7" y1="256.2" x2="24.7" y2="334.1"/>
		</g>
		<g>
			<line class="st2" x1="24.7" y1="92.8" x2="24.7" y2="170.7"/>
		</g>
		<g>
			<line class="st2" x1="24.7" y1="174.5" x2="24.7" y2="252.4"/>

				<rect x="37.9" y="226.7" transform="matrix(0.7071 0.7071 -0.7071 0.7071 198.9798 28.1683)" class="st3" width="55.1" height="55.1"/>
			<line class="st2" x1="26.5" y1="254.3" x2="104.4" y2="254.3"/>
			<line class="st3" x1="65.5" y1="215.3" x2="65.5" y2="293.2"/>
			<polyline class="st3" points="145.3,213.4 106.3,252.4 67.4,213.4 106.3,174.5 			"/>
			<line class="st3" x1="67.4" y1="213.4" x2="145.3" y2="213.4"/>
			<line class="st2" x1="106.3" y1="174.5" x2="106.3" y2="252.4"/>

				<rect x="37.9" y="145.1" transform="matrix(0.7071 0.7071 -0.7071 0.7071 141.2341 4.2493)" class="st3" width="55.1" height="55.1"/>
			<line class="st2" x1="26.5" y1="172.6" x2="104.4" y2="172.6"/>
			<line class="st3" x1="65.5" y1="133.7" x2="65.5" y2="211.6"/>
		</g>
		<g>
			<line class="st2" x1="24.7" y1="582.8" x2="24.7" y2="660.7"/>
		</g>
		<g>
			<line class="st2" x1="24.7" y1="419.5" x2="24.7" y2="497.4"/>
		</g>
		<g>
			<line class="st2" x1="24.7" y1="501.2" x2="24.7" y2="579"/>

				<rect x="37.9" y="553.4" transform="matrix(0.7071 0.7071 -0.7071 0.7071 429.9622 123.8444)" class="st3" width="55.1" height="55.1"/>
			<line class="st2" x1="26.5" y1="580.9" x2="104.4" y2="580.9"/>
			<line class="st3" x1="65.5" y1="542" x2="65.5" y2="619.9"/>

				<rect x="78.8" y="512.6" transform="matrix(0.7071 0.7071 -0.7071 0.7071 413.0489 83.0121)" class="st3" width="55.1" height="55.1"/>
			<line class="st3" x1="67.4" y1="540.1" x2="145.3" y2="540.1"/>
			<line class="st2" x1="106.3" y1="501.2" x2="106.3" y2="579"/>

				<rect x="37.9" y="471.7" transform="matrix(0.7071 0.7071 -0.7071 0.7071 372.2166 99.9254)" class="st3" width="55.1" height="55.1"/>
			<line class="st2" x1="26.5" y1="499.3" x2="104.4" y2="499.3"/>
			<line class="st3" x1="65.5" y1="460.3" x2="65.5" y2="538.2"/>
		</g>
		<g>
			<line class="st2" x1="24.7" y1="909.5" x2="24.7" y2="987.4"/>
		</g>
		<g>
			<line class="st2" x1="24.7" y1="746.1" x2="24.7" y2="824"/>
		</g>
		<g>
			<line class="st2" x1="24.7" y1="827.8" x2="24.7" y2="905.7"/>

				<rect x="37.9" y="880.1" transform="matrix(0.7071 0.7071 -0.7071 0.7071 660.9447 219.5205)" class="st3" width="55.1" height="55.1"/>
			<line class="st2" x1="26.5" y1="907.6" x2="104.4" y2="907.6"/>
			<line class="st3" x1="65.5" y1="868.6" x2="65.5" y2="946.5"/>

				<rect x="78.8" y="839.2" transform="matrix(0.7071 0.7071 -0.7071 0.7071 644.0314 178.6882)" class="st3" width="55.1" height="55.1"/>
			<line class="st3" x1="67.4" y1="866.8" x2="145.3" y2="866.8"/>
			<line class="st2" x1="106.3" y1="827.8" x2="106.3" y2="905.7"/>

				<rect x="37.9" y="798.4" transform="matrix(0.7071 0.7071 -0.7071 0.7071 603.1991 195.6015)" class="st3" width="55.1" height="55.1"/>
			<line class="st2" x1="26.5" y1="825.9" x2="104.4" y2="825.9"/>
			<line class="st3" x1="65.5" y1="787" x2="65.5" y2="864.9"/>
		</g>
	</g>
	<g>
		<line class="st2" x1="26.6" y1="337.8" x2="26.6" y2="415.7"/>

			<rect x="39.8" y="390.1" transform="matrix(0.7071 0.7071 -0.7071 0.7071 315.0273 74.6635)" class="st3" width="55.1" height="55.1"/>
		<line class="st2" x1="28.4" y1="417.6" x2="106.3" y2="417.6"/>
		<line class="st3" x1="67.4" y1="378.7" x2="67.4" y2="456.5"/>

			<rect x="80.7" y="349.2" transform="matrix(0.7071 0.7071 -0.7071 0.7071 298.114 33.8311)" class="st3" width="55.1" height="55.1"/>
		<line class="st3" x1="69.3" y1="376.8" x2="147.2" y2="376.8"/>
		<line class="st2" x1="108.2" y1="337.8" x2="108.2" y2="415.7"/>

			<rect x="39.8" y="308.4" transform="matrix(0.7071 0.7071 -0.7071 0.7071 257.2816 50.7444)" class="st3" width="55.1" height="55.1"/>
		<line class="st2" x1="28.4" y1="335.9" x2="106.3" y2="335.9"/>
		<line class="st3" x1="67.4" y1="297" x2="67.4" y2="374.9"/>
	</g>
	<g>

			<rect x="80.7" y="430.9" transform="matrix(0.7071 0.7071 -0.7071 0.7071 355.8596 57.7502)" class="st3" width="55.1" height="55.1"/>
		<line class="st3" x1="69.3" y1="458.4" x2="147.2" y2="458.4"/>
		<line class="st2" x1="108.2" y1="419.5" x2="108.2" y2="497.4"/>

			<rect x="121.5" y="471.7" transform="matrix(0.7071 0.7071 -0.7071 0.7071 396.6919 40.8369)" class="st3" width="55.1" height="55.1"/>
		<line class="st2" x1="110.1" y1="499.3" x2="188" y2="499.3"/>
		<line class="st3" x1="149.1" y1="460.3" x2="149.1" y2="538.2"/>

			<rect x="162.3" y="430.9" transform="matrix(0.7071 0.7071 -0.7071 0.7071 379.7786 4.539082e-03)" class="st3" width="55.1" height="55.1"/>
		<line class="st3" x1="150.9" y1="458.4" x2="228.8" y2="458.4"/>
		<line class="st2" x1="189.9" y1="419.5" x2="189.9" y2="497.4"/>

			<rect x="121.5" y="390.1" transform="matrix(0.7071 0.7071 -0.7071 0.7071 338.9463 16.9178)" class="st3" width="55.1" height="55.1"/>
		<line class="st2" x1="110.1" y1="417.6" x2="188" y2="417.6"/>
		<line class="st3" x1="149.1" y1="378.7" x2="149.1" y2="456.5"/>
	</g>
	<g>

			<rect x="80.7" y="267.6" transform="matrix(0.7071 0.7071 -0.7071 0.7071 240.3683 9.9121)" class="st3" width="55.1" height="55.1"/>
		<line class="st3" x1="69.3" y1="295.1" x2="147.2" y2="295.1"/>
		<line class="st2" x1="108.2" y1="256.2" x2="108.2" y2="334.1"/>

			<rect x="121.5" y="308.4" transform="matrix(0.7071 0.7071 -0.7071 0.7071 281.2007 -7.0012)" class="st3" width="55.1" height="55.1"/>
		<line class="st2" x1="110.1" y1="335.9" x2="188" y2="335.9"/>
		<line class="st3" x1="149.1" y1="297" x2="149.1" y2="374.9"/>

			<rect x="162.3" y="267.6" transform="matrix(0.7071 0.7071 -0.7071 0.7071 264.2874 -47.8335)" class="st3" width="55.1" height="55.1"/>
		<line class="st3" x1="150.9" y1="295.1" x2="228.8" y2="295.1"/>
		<line class="st2" x1="189.9" y1="256.2" x2="189.9" y2="334.1"/>

			<rect x="121.5" y="226.7" transform="matrix(0.7071 0.7071 -0.7071 0.7071 223.455 -30.9202)" class="st3" width="55.1" height="55.1"/>
		<line class="st2" x1="110.1" y1="254.3" x2="188" y2="254.3"/>
		<line class="st3" x1="149.1" y1="215.3" x2="149.1" y2="293.2"/>
	</g>
	<g>

			<rect x="162.3" y="349.2" transform="matrix(0.7071 0.7071 -0.7071 0.7071 322.033 -23.9145)" class="st3" width="55.1" height="55.1"/>
		<line class="st3" x1="150.9" y1="376.8" x2="228.8" y2="376.8"/>
		<line class="st2" x1="189.9" y1="337.8" x2="189.9" y2="415.7"/>

			<rect x="203.2" y="390.1" transform="matrix(0.7071 0.7071 -0.7071 0.7071 362.8653 -40.8278)" class="st3" width="55.1" height="55.1"/>
		<line class="st2" x1="191.8" y1="417.6" x2="269.7" y2="417.6"/>
		<line class="st3" x1="230.7" y1="378.7" x2="230.7" y2="456.5"/>

			<rect x="244" y="349.2" transform="matrix(0.7071 0.7071 -0.7071 0.7071 345.952 -81.6601)" class="st3" width="55.1" height="55.1"/>
		<line class="st3" x1="232.6" y1="376.8" x2="310.5" y2="376.8"/>
		<line class="st2" x1="271.5" y1="337.8" x2="271.5" y2="415.7"/>

			<rect x="203.2" y="308.4" transform="matrix(0.7071 0.7071 -0.7071 0.7071 305.1197 -64.7468)" class="st3" width="55.1" height="55.1"/>
		<line class="st2" x1="191.8" y1="335.9" x2="269.7" y2="335.9"/>
		<line class="st3" x1="230.7" y1="297" x2="230.7" y2="374.9"/>
	</g>
	<g>
		<line class="st2" x1="26.6" y1="664.5" x2="26.6" y2="742.4"/>

			<rect x="39.8" y="716.7" transform="matrix(0.7071 0.7071 -0.7071 0.7071 546.0097 170.3395)" class="st3" width="55.1" height="55.1"/>
		<line class="st2" x1="28.4" y1="744.3" x2="106.3" y2="744.3"/>
		<line class="st3" x1="67.4" y1="705.3" x2="67.4" y2="783.2"/>

			<rect x="80.7" y="675.9" transform="matrix(0.7071 0.7071 -0.7071 0.7071 529.0964 129.5072)" class="st3" width="55.1" height="55.1"/>
		<line class="st3" x1="69.3" y1="703.4" x2="147.2" y2="703.4"/>
		<line class="st2" x1="108.2" y1="664.5" x2="108.2" y2="742.4"/>

			<rect x="39.8" y="635.1" transform="matrix(0.7071 0.7071 -0.7071 0.7071 488.2641 146.4205)" class="st3" width="55.1" height="55.1"/>
		<line class="st2" x1="28.4" y1="662.6" x2="106.3" y2="662.6"/>
		<line class="st3" x1="67.4" y1="623.7" x2="67.4" y2="701.5"/>
	</g>
	<g>

			<rect x="80.7" y="757.6" transform="matrix(0.7071 0.7071 -0.7071 0.7071 586.842 153.4262)" class="st3" width="55.1" height="55.1"/>
		<line class="st3" x1="69.3" y1="785.1" x2="147.2" y2="785.1"/>
		<line class="st2" x1="108.2" y1="746.1" x2="108.2" y2="824"/>

			<rect x="121.5" y="798.4" transform="matrix(0.7071 0.7071 -0.7071 0.7071 627.6744 136.5129)" class="st3" width="55.1" height="55.1"/>
		<line class="st2" x1="110.1" y1="825.9" x2="188" y2="825.9"/>
		<line class="st3" x1="149.1" y1="787" x2="149.1" y2="864.9"/>

			<rect x="162.3" y="757.6" transform="matrix(0.7071 0.7071 -0.7071 0.7071 610.761 95.6806)" class="st3" width="55.1" height="55.1"/>
		<line class="st3" x1="150.9" y1="785.1" x2="228.8" y2="785.1"/>
		<line class="st2" x1="189.9" y1="746.1" x2="189.9" y2="824"/>

			<rect x="121.5" y="716.7" transform="matrix(0.7071 0.7071 -0.7071 0.7071 569.9287 112.5939)" class="st3" width="55.1" height="55.1"/>
		<line class="st2" x1="110.1" y1="744.3" x2="188" y2="744.3"/>
		<line class="st3" x1="149.1" y1="705.3" x2="149.1" y2="783.2"/>
	</g>
	<g>

			<rect x="80.7" y="594.2" transform="matrix(0.7071 0.7071 -0.7071 0.7071 471.3508 105.5882)" class="st3" width="55.1" height="55.1"/>
		<line class="st3" x1="69.3" y1="621.8" x2="147.2" y2="621.8"/>
		<line class="st2" x1="108.2" y1="582.8" x2="108.2" y2="660.7"/>

			<rect x="121.5" y="635.1" transform="matrix(0.7071 0.7071 -0.7071 0.7071 512.1831 88.6749)" class="st3" width="55.1" height="55.1"/>
		<line class="st2" x1="110.1" y1="662.6" x2="188" y2="662.6"/>
		<line class="st3" x1="149.1" y1="623.7" x2="149.1" y2="701.5"/>

			<rect x="162.3" y="594.2" transform="matrix(0.7071 0.7071 -0.7071 0.7071 495.2698 47.8426)" class="st3" width="55.1" height="55.1"/>
		<line class="st3" x1="150.9" y1="621.8" x2="228.8" y2="621.8"/>
		<line class="st2" x1="189.9" y1="582.8" x2="189.9" y2="660.7"/>

			<rect x="121.5" y="553.4" transform="matrix(0.7071 0.7071 -0.7071 0.7071 454.4375 64.7559)" class="st3" width="55.1" height="55.1"/>
		<line class="st2" x1="110.1" y1="580.9" x2="188" y2="580.9"/>
		<line class="st3" x1="149.1" y1="542" x2="149.1" y2="619.9"/>
	</g>
	<g>

			<rect x="162.3" y="675.9" transform="matrix(0.7071 0.7071 -0.7071 0.7071 553.0154 71.7616)" class="st3" width="55.1" height="55.1"/>
		<line class="st3" x1="150.9" y1="703.4" x2="228.8" y2="703.4"/>
		<line class="st2" x1="189.9" y1="664.5" x2="189.9" y2="742.4"/>

			<rect x="203.2" y="716.7" transform="matrix(0.7071 0.7071 -0.7071 0.7071 593.8478 54.8483)" class="st3" width="55.1" height="55.1"/>
		<line class="st2" x1="191.8" y1="744.3" x2="269.7" y2="744.3"/>
		<line class="st3" x1="230.7" y1="705.3" x2="230.7" y2="783.2"/>

			<rect x="244" y="675.9" transform="matrix(0.7071 0.7071 -0.7071 0.7071 576.9344 14.016)" class="st3" width="55.1" height="55.1"/>
		<line class="st3" x1="232.6" y1="703.4" x2="310.5" y2="703.4"/>
		<line class="st2" x1="271.5" y1="664.5" x2="271.5" y2="742.4"/>

			<rect x="203.2" y="635.1" transform="matrix(0.7071 0.7071 -0.7071 0.7071 536.1021 30.9293)" class="st3" width="55.1" height="55.1"/>
		<line class="st2" x1="191.8" y1="662.6" x2="269.7" y2="662.6"/>
		<line class="st3" x1="230.7" y1="623.7" x2="230.7" y2="701.5"/>
	</g>
	<g>
		<line class="st3" x1="69.3" y1="1030.1" x2="147.2" y2="1030.1"/>

			<rect x="39.8" y="961.7" transform="matrix(0.7071 0.7071 -0.7071 0.7071 719.2466 242.0966)" class="st3" width="55.1" height="55.1"/>
		<line class="st2" x1="28.4" y1="989.3" x2="106.3" y2="989.3"/>
		<line class="st3" x1="67.4" y1="950.3" x2="67.4" y2="1028.2"/>
	</g>
	<g>

			<rect x="80.7" y="920.9" transform="matrix(0.7071 0.7071 -0.7071 0.7071 702.3333 201.2643)" class="st3" width="55.1" height="55.1"/>
		<line class="st3" x1="69.3" y1="948.4" x2="147.2" y2="948.4"/>
		<line class="st2" x1="108.2" y1="909.5" x2="108.2" y2="987.4"/>

			<rect x="121.5" y="961.7" transform="matrix(0.7071 0.7071 -0.7071 0.7071 743.1656 184.351)" class="st3" width="55.1" height="55.1"/>
		<line class="st2" x1="110.1" y1="989.3" x2="188" y2="989.3"/>
		<line class="st3" x1="149.1" y1="950.3" x2="149.1" y2="1028.2"/>

			<rect x="162.3" y="920.9" transform="matrix(0.7071 0.7071 -0.7071 0.7071 726.2523 143.5186)" class="st3" width="55.1" height="55.1"/>
		<line class="st3" x1="150.9" y1="948.4" x2="228.8" y2="948.4"/>
		<line class="st2" x1="189.9" y1="909.5" x2="189.9" y2="987.4"/>

			<rect x="121.5" y="880.1" transform="matrix(0.7071 0.7071 -0.7071 0.7071 685.42 160.4319)" class="st3" width="55.1" height="55.1"/>
		<line class="st2" x1="110.1" y1="907.6" x2="188" y2="907.6"/>
		<line class="st3" x1="149.1" y1="868.6" x2="149.1" y2="946.5"/>
	</g>
	<g>
		<line class="st3" x1="150.9" y1="1030.1" x2="228.8" y2="1030.1"/>
		<line class="st3" x1="232.6" y1="1030.1" x2="310.5" y2="1030.1"/>

			<rect x="203.2" y="961.7" transform="matrix(0.7071 0.7071 -0.7071 0.7071 767.0846 126.6053)" class="st3" width="55.1" height="55.1"/>
		<line class="st2" x1="191.8" y1="989.3" x2="269.7" y2="989.3"/>
		<line class="st3" x1="230.7" y1="950.3" x2="230.7" y2="1028.2"/>
	</g>
	<g>
		<g>

				<rect x="162.3" y="185.9" transform="matrix(0.7071 0.7071 -0.7071 0.7071 206.5417 -71.7525)" class="st3" width="55.1" height="55.1"/>
			<line class="st3" x1="150.9" y1="213.4" x2="228.8" y2="213.4"/>
			<line class="st2" x1="189.9" y1="174.5" x2="189.9" y2="252.4"/>

				<rect x="203.2" y="226.7" transform="matrix(0.7071 0.7071 -0.7071 0.7071 247.3741 -88.6658)" class="st3" width="55.1" height="55.1"/>
			<line class="st2" x1="191.8" y1="254.3" x2="269.7" y2="254.3"/>
			<line class="st3" x1="230.7" y1="215.3" x2="230.7" y2="293.2"/>

				<rect x="244" y="185.9" transform="matrix(0.7071 0.7071 -0.7071 0.7071 230.4608 -129.4981)" class="st3" width="55.1" height="55.1"/>
			<line class="st3" x1="232.6" y1="213.4" x2="310.5" y2="213.4"/>
			<line class="st2" x1="271.5" y1="174.5" x2="271.5" y2="252.4"/>
			<polyline class="st3" points="230.7,133.7 269.7,172.6 230.7,211.6 191.8,172.6 			"/>
			<line class="st2" x1="191.8" y1="172.6" x2="269.7" y2="172.6"/>
			<line class="st3" x1="230.7" y1="133.7" x2="230.7" y2="211.6"/>
		</g>
		<g>

				<rect x="244" y="267.6" transform="matrix(0.7071 0.7071 -0.7071 0.7071 288.2064 -105.5791)" class="st3" width="55.1" height="55.1"/>
			<line class="st3" x1="232.6" y1="295.1" x2="310.5" y2="295.1"/>
			<line class="st2" x1="271.5" y1="256.2" x2="271.5" y2="334.1"/>

				<rect x="284.8" y="308.4" transform="matrix(0.7071 0.7071 -0.7071 0.7071 329.0387 -122.4924)" class="st3" width="55.1" height="55.1"/>
			<line class="st2" x1="273.4" y1="335.9" x2="351.3" y2="335.9"/>
			<line class="st3" x1="312.4" y1="297" x2="312.4" y2="374.9"/>

				<rect x="284.8" y="226.7" transform="matrix(0.7071 0.7071 -0.7071 0.7071 271.2931 -146.4114)" class="st3" width="55.1" height="55.1"/>
			<line class="st2" x1="273.4" y1="254.3" x2="351.3" y2="254.3"/>
			<line class="st3" x1="312.4" y1="215.3" x2="312.4" y2="293.2"/>
		</g>
		<g>

				<rect x="244" y="104.2" transform="matrix(0.7071 0.7071 -0.7071 0.7071 172.7151 -153.4171)" class="st3" width="55.1" height="55.1"/>
			<line class="st3" x1="232.6" y1="131.8" x2="310.5" y2="131.8"/>
			<line class="st2" x1="271.5" y1="92.8" x2="271.5" y2="170.7"/>

				<rect x="284.8" y="145.1" transform="matrix(0.7071 0.7071 -0.7071 0.7071 213.5475 -170.3304)" class="st3" width="55.1" height="55.1"/>
			<line class="st2" x1="273.4" y1="172.6" x2="351.3" y2="172.6"/>
			<line class="st3" x1="312.4" y1="133.7" x2="312.4" y2="211.6"/>

				<rect x="284.8" y="63.4" transform="matrix(0.7071 0.7071 -0.7071 0.7071 155.8018 -194.2495)" class="st3" width="55.1" height="55.1"/>
			<line class="st2" x1="273.4" y1="90.9" x2="351.3" y2="90.9"/>
			<line class="st3" x1="312.4" y1="52" x2="312.4" y2="129.9"/>
		</g>
		<g>

				<rect x="325.7" y="185.9" transform="matrix(0.7071 0.7071 -0.7071 0.7071 254.3798 -187.2437)" class="st3" width="55.1" height="55.1"/>
			<line class="st3" x1="314.3" y1="213.4" x2="392.2" y2="213.4"/>
			<line class="st2" x1="353.2" y1="174.5" x2="353.2" y2="252.4"/>

				<rect x="366.5" y="226.7" transform="matrix(0.7071 0.7071 -0.7071 0.7071 295.2121 -204.157)" class="st3" width="55.1" height="55.1"/>
			<line class="st2" x1="355.1" y1="254.3" x2="433" y2="254.3"/>
			<line class="st3" x1="394" y1="215.3" x2="394" y2="293.2"/>

				<rect x="407.3" y="185.9" transform="matrix(0.7071 0.7071 -0.7071 0.7071 278.2988 -244.9894)" class="st3" width="55.1" height="55.1"/>
			<line class="st3" x1="395.9" y1="213.4" x2="473.8" y2="213.4"/>
			<line class="st2" x1="434.9" y1="174.5" x2="434.9" y2="252.4"/>
			<polyline class="st3" points="394,133.7 433,172.6 394,211.6 355.1,172.6 			"/>
			<line class="st2" x1="355.1" y1="172.6" x2="433" y2="172.6"/>
			<line class="st3" x1="394" y1="133.7" x2="394" y2="211.6"/>
		</g>
		<g>

				<rect x="162.3" y="512.6" transform="matrix(0.7071 0.7071 -0.7071 0.7071 437.5242 23.9236)" class="st3" width="55.1" height="55.1"/>
			<line class="st3" x1="150.9" y1="540.1" x2="228.8" y2="540.1"/>
			<line class="st2" x1="189.9" y1="501.2" x2="189.9" y2="579"/>

				<rect x="203.2" y="553.4" transform="matrix(0.7071 0.7071 -0.7071 0.7071 478.3565 7.0103)" class="st3" width="55.1" height="55.1"/>
			<line class="st2" x1="191.8" y1="580.9" x2="269.7" y2="580.9"/>
			<line class="st3" x1="230.7" y1="542" x2="230.7" y2="619.9"/>

				<rect x="244" y="512.6" transform="matrix(0.7071 0.7071 -0.7071 0.7071 461.4432 -33.8221)" class="st3" width="55.1" height="55.1"/>
			<line class="st3" x1="232.6" y1="540.1" x2="310.5" y2="540.1"/>
			<line class="st2" x1="271.5" y1="501.2" x2="271.5" y2="579"/>

				<rect x="203.2" y="471.7" transform="matrix(0.7071 0.7071 -0.7071 0.7071 420.6109 -16.9088)" class="st3" width="55.1" height="55.1"/>
			<line class="st2" x1="191.8" y1="499.3" x2="269.7" y2="499.3"/>
			<line class="st3" x1="230.7" y1="460.3" x2="230.7" y2="538.2"/>
		</g>
		<g>

				<rect x="244" y="594.2" transform="matrix(0.7071 0.7071 -0.7071 0.7071 519.1888 -9.903)" class="st3" width="55.1" height="55.1"/>
			<line class="st3" x1="232.6" y1="621.8" x2="310.5" y2="621.8"/>
			<line class="st2" x1="271.5" y1="582.8" x2="271.5" y2="660.7"/>

				<rect x="284.8" y="635.1" transform="matrix(0.7071 0.7071 -0.7071 0.7071 560.0212 -26.8163)" class="st3" width="55.1" height="55.1"/>
			<line class="st2" x1="273.4" y1="662.6" x2="351.3" y2="662.6"/>
			<line class="st3" x1="312.4" y1="623.7" x2="312.4" y2="701.5"/>

				<rect x="325.7" y="594.2" transform="matrix(0.7071 0.7071 -0.7071 0.7071 543.1078 -67.6487)" class="st3" width="55.1" height="55.1"/>
			<line class="st3" x1="314.3" y1="621.8" x2="392.2" y2="621.8"/>
			<line class="st2" x1="353.2" y1="582.8" x2="353.2" y2="660.7"/>

				<rect x="284.8" y="553.4" transform="matrix(0.7071 0.7071 -0.7071 0.7071 502.2755 -50.7354)" class="st3" width="55.1" height="55.1"/>
			<line class="st2" x1="273.4" y1="580.9" x2="351.3" y2="580.9"/>
			<line class="st3" x1="312.4" y1="542" x2="312.4" y2="619.9"/>
		</g>
		<g>

				<rect x="244" y="430.9" transform="matrix(0.7071 0.7071 -0.7071 0.7071 403.6976 -57.7411)" class="st3" width="55.1" height="55.1"/>
			<line class="st3" x1="232.6" y1="458.4" x2="310.5" y2="458.4"/>
			<line class="st2" x1="271.5" y1="419.5" x2="271.5" y2="497.4"/>

				<rect x="284.8" y="471.7" transform="matrix(0.7071 0.7071 -0.7071 0.7071 444.5299 -74.6544)" class="st3" width="55.1" height="55.1"/>
			<line class="st2" x1="273.4" y1="499.3" x2="351.3" y2="499.3"/>
			<line class="st3" x1="312.4" y1="460.3" x2="312.4" y2="538.2"/>
			<polyline class="st3" points="392.2,458.4 353.2,497.4 314.3,458.4 353.2,419.5 			"/>
			<line class="st3" x1="314.3" y1="458.4" x2="392.2" y2="458.4"/>
			<line class="st2" x1="353.2" y1="419.5" x2="353.2" y2="497.4"/>

				<rect x="284.8" y="390.1" transform="matrix(0.7071 0.7071 -0.7071 0.7071 386.7843 -98.5734)" class="st3" width="55.1" height="55.1"/>
			<line class="st2" x1="273.4" y1="417.6" x2="351.3" y2="417.6"/>
			<line class="st3" x1="312.4" y1="378.7" x2="312.4" y2="456.5"/>
		</g>
		<g>

				<rect x="325.7" y="512.6" transform="matrix(0.7071 0.7071 -0.7071 0.7071 485.3622 -91.5677)" class="st3" width="55.1" height="55.1"/>
			<line class="st3" x1="314.3" y1="540.1" x2="392.2" y2="540.1"/>
			<line class="st2" x1="353.2" y1="501.2" x2="353.2" y2="579"/>

				<rect x="366.5" y="553.4" transform="matrix(0.7071 0.7071 -0.7071 0.7071 526.1946 -108.481)" class="st3" width="55.1" height="55.1"/>
			<line class="st2" x1="355.1" y1="580.9" x2="433" y2="580.9"/>
			<line class="st3" x1="394" y1="542" x2="394" y2="619.9"/>
			<polyline class="st3" points="473.8,540.1 434.9,579 395.9,540.1 434.9,501.2 			"/>
			<line class="st3" x1="395.9" y1="540.1" x2="473.8" y2="540.1"/>
			<line class="st2" x1="434.9" y1="501.2" x2="434.9" y2="579"/>

				<rect x="366.5" y="471.7" transform="matrix(0.7071 0.7071 -0.7071 0.7071 468.4489 -132.4)" class="st3" width="55.1" height="55.1"/>
			<line class="st2" x1="355.1" y1="499.3" x2="433" y2="499.3"/>
			<line class="st3" x1="394" y1="460.3" x2="394" y2="538.2"/>
		</g>
		<g>

				<rect x="162.3" y="839.2" transform="matrix(0.7071 0.7071 -0.7071 0.7071 668.5067 119.5996)" class="st3" width="55.1" height="55.1"/>
			<line class="st3" x1="150.9" y1="866.8" x2="228.8" y2="866.8"/>
			<line class="st2" x1="189.9" y1="827.8" x2="189.9" y2="905.7"/>

				<rect x="203.2" y="880.1" transform="matrix(0.7071 0.7071 -0.7071 0.7071 709.339 102.6863)" class="st3" width="55.1" height="55.1"/>
			<line class="st2" x1="191.8" y1="907.6" x2="269.7" y2="907.6"/>
			<line class="st3" x1="230.7" y1="868.6" x2="230.7" y2="946.5"/>

				<rect x="244" y="839.2" transform="matrix(0.7071 0.7071 -0.7071 0.7071 692.4257 61.854)" class="st3" width="55.1" height="55.1"/>
			<line class="st3" x1="232.6" y1="866.8" x2="310.5" y2="866.8"/>
			<line class="st2" x1="271.5" y1="827.8" x2="271.5" y2="905.7"/>

				<rect x="203.2" y="798.4" transform="matrix(0.7071 0.7071 -0.7071 0.7071 651.5934 78.7673)" class="st3" width="55.1" height="55.1"/>
			<line class="st2" x1="191.8" y1="825.9" x2="269.7" y2="825.9"/>
			<line class="st3" x1="230.7" y1="787" x2="230.7" y2="864.9"/>
		</g>
		<g>

				<rect x="244" y="920.9" transform="matrix(0.7071 0.7071 -0.7071 0.7071 750.1713 85.773)" class="st3" width="55.1" height="55.1"/>
			<line class="st3" x1="232.6" y1="948.4" x2="310.5" y2="948.4"/>
			<line class="st2" x1="271.5" y1="909.5" x2="271.5" y2="987.4"/>

				<rect x="284.8" y="961.7" transform="matrix(0.7071 0.7071 -0.7071 0.7071 791.0036 68.8597)" class="st3" width="55.1" height="55.1"/>
			<line class="st2" x1="273.4" y1="989.3" x2="351.3" y2="989.3"/>
			<line class="st3" x1="312.4" y1="950.3" x2="312.4" y2="1028.2"/>

				<rect x="325.7" y="920.9" transform="matrix(0.7071 0.7071 -0.7071 0.7071 774.0903 28.0274)" class="st3" width="55.1" height="55.1"/>
			<line class="st3" x1="314.3" y1="948.4" x2="392.2" y2="948.4"/>
			<line class="st2" x1="353.2" y1="909.5" x2="353.2" y2="987.4"/>

				<rect x="284.8" y="880.1" transform="matrix(0.7071 0.7071 -0.7071 0.7071 733.258 44.9407)" class="st3" width="55.1" height="55.1"/>
			<line class="st2" x1="273.4" y1="907.6" x2="351.3" y2="907.6"/>
			<line class="st3" x1="312.4" y1="868.6" x2="312.4" y2="946.5"/>
		</g>
		<g>

				<rect x="244" y="757.6" transform="matrix(0.7071 0.7071 -0.7071 0.7071 634.6801 37.935)" class="st3" width="55.1" height="55.1"/>
			<line class="st3" x1="232.6" y1="785.1" x2="310.5" y2="785.1"/>
			<line class="st2" x1="271.5" y1="746.1" x2="271.5" y2="824"/>

				<rect x="284.8" y="798.4" transform="matrix(0.7071 0.7071 -0.7071 0.7071 675.5124 21.0217)" class="st3" width="55.1" height="55.1"/>
			<line class="st2" x1="273.4" y1="825.9" x2="351.3" y2="825.9"/>
			<line class="st3" x1="312.4" y1="787" x2="312.4" y2="864.9"/>

				<rect x="325.7" y="757.6" transform="matrix(0.7071 0.7071 -0.7071 0.7071 658.5991 -19.8106)" class="st3" width="55.1" height="55.1"/>
			<line class="st3" x1="314.3" y1="785.1" x2="392.2" y2="785.1"/>
			<line class="st2" x1="353.2" y1="746.1" x2="353.2" y2="824"/>

				<rect x="284.8" y="716.7" transform="matrix(0.7071 0.7071 -0.7071 0.7071 617.7668 -2.8973)" class="st3" width="55.1" height="55.1"/>
			<line class="st2" x1="273.4" y1="744.3" x2="351.3" y2="744.3"/>
			<line class="st3" x1="312.4" y1="705.3" x2="312.4" y2="783.2"/>
		</g>
		<g>

				<rect x="325.7" y="839.2" transform="matrix(0.7071 0.7071 -0.7071 0.7071 716.3447 4.1084)" class="st3" width="55.1" height="55.1"/>
			<line class="st3" x1="314.3" y1="866.8" x2="392.2" y2="866.8"/>
			<line class="st2" x1="353.2" y1="827.8" x2="353.2" y2="905.7"/>

				<rect x="366.5" y="880.1" transform="matrix(0.7071 0.7071 -0.7071 0.7071 757.177 -12.8049)" class="st3" width="55.1" height="55.1"/>
			<line class="st2" x1="355.1" y1="907.6" x2="433" y2="907.6"/>
			<line class="st3" x1="394" y1="868.6" x2="394" y2="946.5"/>

				<rect x="407.3" y="839.2" transform="matrix(0.7071 0.7071 -0.7071 0.7071 740.2637 -53.6372)" class="st3" width="55.1" height="55.1"/>
			<line class="st3" x1="395.9" y1="866.8" x2="473.8" y2="866.8"/>
			<line class="st2" x1="434.9" y1="827.8" x2="434.9" y2="905.7"/>

				<rect x="366.5" y="798.4" transform="matrix(0.7071 0.7071 -0.7071 0.7071 699.4314 -36.7239)" class="st3" width="55.1" height="55.1"/>
			<line class="st2" x1="355.1" y1="825.9" x2="433" y2="825.9"/>
			<line class="st3" x1="394" y1="787" x2="394" y2="864.9"/>
		</g>
	</g>
	<g>
		<g>

				<rect x="325.7" y="674.9" transform="matrix(0.7071 0.7071 -0.7071 0.7071 600.182 -44.0078)" class="st3" width="55.1" height="55.1"/>
			<line class="st3" x1="314.3" y1="702.5" x2="392.2" y2="702.5"/>
			<line class="st3" x1="353.2" y1="663.5" x2="353.2" y2="741.4"/>

				<rect x="366.5" y="715.8" transform="matrix(0.7071 0.7071 -0.7071 0.7071 641.0143 -60.9211)" class="st3" width="55.1" height="55.1"/>
			<line class="st3" x1="355.1" y1="743.3" x2="433" y2="743.3"/>
			<line class="st3" x1="394" y1="704.4" x2="394" y2="782.3"/>

				<rect x="407.3" y="674.9" transform="matrix(0.7071 0.7071 -0.7071 0.7071 624.101 -101.7534)" class="st3" width="55.1" height="55.1"/>
			<line class="st3" x1="395.9" y1="702.5" x2="473.8" y2="702.5"/>
			<line class="st3" x1="434.9" y1="663.5" x2="434.9" y2="741.4"/>

				<rect x="366.5" y="634.1" transform="matrix(0.7071 0.7071 -0.7071 0.7071 583.2687 -84.8401)" class="st3" width="55.1" height="55.1"/>
			<line class="st3" x1="355.1" y1="661.6" x2="433" y2="661.6"/>
			<line class="st3" x1="394" y1="622.7" x2="394" y2="700.6"/>
		</g>
		<g>

				<rect x="407.3" y="756.6" transform="matrix(0.7071 0.7071 -0.7071 0.7071 681.8466 -77.8344)" class="st3" width="55.1" height="55.1"/>
			<line class="st3" x1="395.9" y1="784.1" x2="473.8" y2="784.1"/>
			<line class="st3" x1="434.9" y1="745.2" x2="434.9" y2="823.1"/>
			<polyline class="st3" points="475.7,863.9 436.8,825 475.7,786 514.7,825 			"/>

				<rect x="489" y="756.6" transform="matrix(0.7071 0.7071 -0.7071 0.7071 705.7657 -135.58)" class="st3" width="55.1" height="55.1"/>
			<line class="st3" x1="477.6" y1="784.1" x2="555.5" y2="784.1"/>
			<line class="st3" x1="516.5" y1="745.2" x2="516.5" y2="823.1"/>

				<rect x="448.2" y="715.8" transform="matrix(0.7071 0.7071 -0.7071 0.7071 664.9333 -118.6667)" class="st3" width="55.1" height="55.1"/>
			<line class="st3" x1="436.8" y1="743.3" x2="514.7" y2="743.3"/>
			<line class="st3" x1="475.7" y1="704.4" x2="475.7" y2="782.3"/>
		</g>
		<g>
			<polyline class="st3" points="475.7,618.9 436.8,580 475.7,541 514.7,580 			"/>
			<line class="st3" x1="436.8" y1="580" x2="514.7" y2="580"/>
			<line class="st3" x1="475.7" y1="541" x2="475.7" y2="618.9"/>
		</g>
		<g>

				<rect x="489" y="674.9" transform="matrix(0.7071 0.7071 -0.7071 0.7071 648.02 -159.499)" class="st3" width="55.1" height="55.1"/>
			<line class="st3" x1="477.6" y1="702.5" x2="555.5" y2="702.5"/>
			<line class="st3" x1="516.5" y1="663.5" x2="516.5" y2="741.4"/>
			<polyline class="st3" points="557.4,782.3 518.4,743.3 557.4,704.4 596.3,743.3 			"/>
			<line class="st3" x1="518.4" y1="743.3" x2="596.3" y2="743.3"/>
			<line class="st3" x1="557.4" y1="704.4" x2="557.4" y2="782.3"/>

				<rect x="570.7" y="674.9" transform="matrix(0.7071 0.7071 -0.7071 0.7071 671.9391 -217.2446)" class="st3" width="55.1" height="55.1"/>
			<line class="st3" x1="559.3" y1="702.5" x2="637.2" y2="702.5"/>
			<line class="st3" x1="598.2" y1="663.5" x2="598.2" y2="741.4"/>
			<polyline class="st3" points="557.4,622.7 596.3,661.6 557.4,700.6 518.4,661.6 			"/>
			<line class="st3" x1="518.4" y1="661.6" x2="596.3" y2="661.6"/>
			<line class="st3" x1="557.4" y1="622.7" x2="557.4" y2="700.6"/>
		</g>
		<g>
			<line class="st3" x1="314.3" y1="1029.1" x2="392.2" y2="1029.1"/>
			<line class="st3" x1="395.9" y1="1029.1" x2="473.8" y2="1029.1"/>

				<rect x="366.5" y="960.8" transform="matrix(0.7071 0.7071 -0.7071 0.7071 814.2512 10.836)" class="st3" width="55.1" height="55.1"/>
			<line class="st3" x1="355.1" y1="988.3" x2="433" y2="988.3"/>
			<line class="st3" x1="394" y1="949.4" x2="394" y2="1027.3"/>
		</g>
		<g>

				<rect x="407.3" y="919.9" transform="matrix(0.7071 0.7071 -0.7071 0.7071 797.3379 -29.9963)" class="st3" width="55.1" height="55.1"/>
			<line class="st3" x1="395.9" y1="947.5" x2="473.8" y2="947.5"/>
			<line class="st3" x1="434.9" y1="908.5" x2="434.9" y2="986.4"/>

				<rect x="448.2" y="960.8" transform="matrix(0.7071 0.7071 -0.7071 0.7071 838.1702 -46.9096)" class="st3" width="55.1" height="55.1"/>
			<line class="st3" x1="436.8" y1="988.3" x2="514.7" y2="988.3"/>
			<line class="st3" x1="475.7" y1="949.4" x2="475.7" y2="1027.3"/>

				<rect x="489" y="919.9" transform="matrix(0.7071 0.7071 -0.7071 0.7071 821.2569 -87.742)" class="st3" width="55.1" height="55.1"/>
			<line class="st3" x1="477.6" y1="947.5" x2="555.5" y2="947.5"/>
			<line class="st3" x1="516.5" y1="908.5" x2="516.5" y2="986.4"/>

				<rect x="448.2" y="879.1" transform="matrix(0.7071 0.7071 -0.7071 0.7071 780.4246 -70.8287)" class="st3" width="55.1" height="55.1"/>
			<line class="st3" x1="436.8" y1="906.6" x2="514.7" y2="906.6"/>
			<line class="st3" x1="475.7" y1="867.7" x2="475.7" y2="945.6"/>
		</g>
		<g>
			<line class="st3" x1="477.6" y1="1029.1" x2="555.5" y2="1029.1"/>
			<line class="st3" x1="559.3" y1="1029.1" x2="637.2" y2="1029.1"/>

				<rect x="529.8" y="960.8" transform="matrix(0.7071 0.7071 -0.7071 0.7071 862.0892 -104.6553)" class="st3" width="55.1" height="55.1"/>
			<line class="st3" x1="518.4" y1="988.3" x2="596.3" y2="988.3"/>
			<line class="st3" x1="557.4" y1="949.4" x2="557.4" y2="1027.3"/>
		</g>
	</g>
	<g>
		<polyline class="st3" points="1365.4,948.9 1404.3,910 1443.3,948.9 1404.3,987.9 		"/>
		<line class="st3" x1="1365.4" y1="948.9" x2="1443.3" y2="948.9"/>
		<line class="st2" x1="1404.3" y1="910" x2="1404.3" y2="987.9"/>

			<rect x="1417.6" y="962.2" transform="matrix(0.7071 0.7071 -0.7071 0.7071 1123.1373 -731.9739)" class="st3" width="55.1" height="55.1"/>
		<line class="st2" x1="1406.2" y1="989.8" x2="1484.1" y2="989.8"/>
		<line class="st3" x1="1445.1" y1="950.8" x2="1445.1" y2="1028.7"/>

			<rect x="1458.4" y="921.4" transform="matrix(0.7071 0.7071 -0.7071 0.7071 1106.2241 -772.8062)" class="st3" width="55.1" height="55.1"/>
		<line class="st3" x1="1447" y1="948.9" x2="1524.9" y2="948.9"/>
		<line class="st2" x1="1486" y1="910" x2="1486" y2="987.9"/>

			<rect x="1417.6" y="880.6" transform="matrix(0.7071 0.7071 -0.7071 0.7071 1065.3917 -755.8929)" class="st3" width="55.1" height="55.1"/>
		<line class="st2" x1="1406.2" y1="908.1" x2="1484.1" y2="908.1"/>
		<line class="st3" x1="1445.1" y1="869.2" x2="1445.1" y2="947"/>
	</g>
	<g>

			<rect x="1561.1" y="921.5" transform="matrix(0.7071 0.7071 -0.7071 0.7071 1136.3628 -845.3657)" class="st3" width="55.1" height="55.1"/>
		<line class="st3" x1="1549.7" y1="949" x2="1627.6" y2="949"/>
		<line class="st2" x1="1588.6" y1="910.1" x2="1588.6" y2="988"/>

			<rect x="1601.9" y="962.3" transform="matrix(0.7071 0.7071 -0.7071 0.7071 1177.1951 -862.2791)" class="st3" width="55.1" height="55.1"/>
		<line class="st2" x1="1590.5" y1="989.9" x2="1668.4" y2="989.9"/>
		<line class="st3" x1="1629.5" y1="950.9" x2="1629.5" y2="1028.8"/>

			<rect x="1642.8" y="921.5" transform="matrix(0.7071 0.7071 -0.7071 0.7071 1160.2817 -903.1113)" class="st3" width="55.1" height="55.1"/>
		<line class="st3" x1="1631.3" y1="949" x2="1709.2" y2="949"/>
		<line class="st2" x1="1670.3" y1="910.1" x2="1670.3" y2="988"/>

			<rect x="1601.9" y="880.7" transform="matrix(0.7071 0.7071 -0.7071 0.7071 1119.4495 -886.1981)" class="st3" width="55.1" height="55.1"/>
		<line class="st2" x1="1590.5" y1="908.2" x2="1668.4" y2="908.2"/>
		<line class="st3" x1="1629.5" y1="869.3" x2="1629.5" y2="947.1"/>
	</g>
	<g>
		<line class="st3" x1="1455.7" y1="1030.7" x2="1533.6" y2="1030.7"/>
		<line class="st3" x1="1537.3" y1="1030.7" x2="1615.2" y2="1030.7"/>

			<rect x="1507.9" y="962.3" transform="matrix(0.7071 0.7071 -0.7071 0.7071 1149.6604 -795.8044)" class="st3" width="55.1" height="55.1"/>
		<line class="st2" x1="1496.5" y1="989.9" x2="1574.4" y2="989.9"/>
		<line class="st3" x1="1535.5" y1="950.9" x2="1535.5" y2="1028.8"/>
	</g>
	<g>

			<rect x="1508.9" y="871.7" transform="matrix(0.7071 0.7071 -0.7071 0.7071 1085.8438 -823.0666)" class="st3" width="55.1" height="55.1"/>
		<line class="st2" x1="1497.5" y1="899.2" x2="1575.4" y2="899.2"/>
		<line class="st3" x1="1536.5" y1="860.3" x2="1536.5" y2="938.1"/>

			<rect x="1549.7" y="830.8" transform="matrix(0.7071 0.7071 -0.7071 0.7071 1068.9304 -863.8989)" class="st3" width="55.1" height="55.1"/>
		<line class="st3" x1="1538.3" y1="858.4" x2="1616.2" y2="858.4"/>
		<line class="st2" x1="1577.3" y1="819.4" x2="1577.3" y2="897.3"/>

			<rect x="1508.9" y="790" transform="matrix(0.7071 0.7071 -0.7071 0.7071 1028.098 -846.9856)" class="st3" width="55.1" height="55.1"/>
		<line class="st2" x1="1497.5" y1="817.5" x2="1575.4" y2="817.5"/>
		<line class="st3" x1="1536.5" y1="778.6" x2="1536.5" y2="856.5"/>
	</g>
	<g>
		<polyline class="st3" points="1359.5,866.3 1398.4,905.2 1359.5,944.1 1320.5,905.2 		"/>
		<line class="st2" x1="1320.5" y1="905.2" x2="1398.4" y2="905.2"/>
		<line class="st3" x1="1359.5" y1="866.3" x2="1359.5" y2="944.1"/>

			<rect x="1372.7" y="836.8" transform="matrix(0.7071 0.7071 -0.7071 0.7071 1021.3309 -736.9836)" class="st3" width="55.1" height="55.1"/>
		<line class="st3" x1="1361.3" y1="864.4" x2="1439.2" y2="864.4"/>
		<line class="st2" x1="1400.3" y1="825.4" x2="1400.3" y2="903.3"/>

			<rect x="1331.9" y="796" transform="matrix(0.7071 0.7071 -0.7071 0.7071 980.4986 -720.0703)" class="st3" width="55.1" height="55.1"/>
		<line class="st2" x1="1320.5" y1="823.5" x2="1398.4" y2="823.5"/>
		<line class="st3" x1="1359.5" y1="784.6" x2="1359.5" y2="862.5"/>
	</g>
	<g>

			<rect x="1747.2" y="921.5" transform="matrix(0.7071 0.7071 -0.7071 0.7071 1190.8759 -976.972)" class="st3" width="55.1" height="55.1"/>
		<line class="st3" x1="1735.8" y1="949" x2="1813.7" y2="949"/>
		<line class="st2" x1="1774.7" y1="910.1" x2="1774.7" y2="988"/>

			<rect x="1788" y="962.3" transform="matrix(0.7071 0.7071 -0.7071 0.7071 1231.7081 -993.8853)" class="st3" width="55.1" height="55.1"/>
		<line class="st2" x1="1776.6" y1="989.9" x2="1854.5" y2="989.9"/>
		<line class="st3" x1="1815.6" y1="950.9" x2="1815.6" y2="1028.8"/>

			<rect x="1828.9" y="921.5" transform="matrix(0.7071 0.7071 -0.7071 0.7071 1214.7949 -1034.7177)" class="st3" width="55.1" height="55.1"/>
		<line class="st3" x1="1817.5" y1="949" x2="1895.4" y2="949"/>
		<line class="st2" x1="1856.4" y1="910.1" x2="1856.4" y2="988"/>
		<polyline class="st3" points="1854.5,908.2 1815.6,947.1 1776.6,908.2 1815.6,869.3 		"/>
		<line class="st2" x1="1776.6" y1="908.2" x2="1854.5" y2="908.2"/>
		<line class="st3" x1="1815.6" y1="869.3" x2="1815.6" y2="947.1"/>
	</g>
	<g>
		<line class="st3" x1="1641.8" y1="1030.7" x2="1719.7" y2="1030.7"/>
		<line class="st3" x1="1723.5" y1="1030.7" x2="1801.3" y2="1030.7"/>

			<rect x="1694" y="962.3" transform="matrix(0.7071 0.7071 -0.7071 0.7071 1204.1735 -927.4107)" class="st3" width="55.1" height="55.1"/>
		<line class="st2" x1="1682.6" y1="989.9" x2="1760.5" y2="989.9"/>
		<line class="st3" x1="1721.6" y1="950.9" x2="1721.6" y2="1028.8"/>
	</g>
	<g>

			<rect x="1653.2" y="839.8" transform="matrix(0.7071 0.7071 -0.7071 0.7071 1105.5956 -934.4164)" class="st3" width="55.1" height="55.1"/>
		<line class="st3" x1="1641.8" y1="867.4" x2="1719.7" y2="867.4"/>
		<line class="st2" x1="1680.7" y1="828.4" x2="1680.7" y2="906.3"/>

			<rect x="1694" y="880.7" transform="matrix(0.7071 0.7071 -0.7071 0.7071 1146.4279 -951.3297)" class="st3" width="55.1" height="55.1"/>
		<line class="st2" x1="1682.6" y1="908.2" x2="1760.5" y2="908.2"/>
		<line class="st3" x1="1721.6" y1="869.3" x2="1721.6" y2="947.1"/>

			<rect x="1734.9" y="839.8" transform="matrix(0.7071 0.7071 -0.7071 0.7071 1129.5145 -992.162)" class="st3" width="55.1" height="55.1"/>
		<line class="st3" x1="1723.5" y1="867.4" x2="1801.3" y2="867.4"/>
		<line class="st2" x1="1762.4" y1="828.4" x2="1762.4" y2="906.3"/>
		<polyline class="st3" points="1721.6,787.6 1760.5,826.5 1721.6,865.5 1682.6,826.5 		"/>
		<line class="st2" x1="1682.6" y1="826.5" x2="1760.5" y2="826.5"/>
		<line class="st3" x1="1721.6" y1="787.6" x2="1721.6" y2="865.5"/>
	</g>
	<g>

			<rect x="1735.3" y="757.7" transform="matrix(0.7071 0.7071 -0.7071 0.7071 1071.5723 -1016.5558)" class="st3" width="55.1" height="55.1"/>
		<line class="st3" x1="1723.9" y1="785.2" x2="1801.8" y2="785.2"/>
		<line class="st2" x1="1762.9" y1="746.3" x2="1762.9" y2="824.2"/>

			<rect x="1776.2" y="798.5" transform="matrix(0.7071 0.7071 -0.7071 0.7071 1112.4047 -1033.4691)" class="st3" width="55.1" height="55.1"/>
		<line class="st2" x1="1764.8" y1="826.1" x2="1842.7" y2="826.1"/>
		<line class="st3" x1="1803.7" y1="787.1" x2="1803.7" y2="865"/>

			<rect x="1817" y="757.7" transform="matrix(0.7071 0.7071 -0.7071 0.7071 1095.4913 -1074.3015)" class="st3" width="55.1" height="55.1"/>
		<line class="st3" x1="1805.6" y1="785.2" x2="1883.5" y2="785.2"/>
		<line class="st2" x1="1844.5" y1="746.3" x2="1844.5" y2="824.2"/>
		<polyline class="st3" points="1842.7,744.4 1803.7,783.3 1764.8,744.4 1803.7,705.4 		"/>
		<line class="st2" x1="1764.8" y1="744.4" x2="1842.7" y2="744.4"/>
		<line class="st3" x1="1803.7" y1="705.4" x2="1803.7" y2="783.3"/>
	</g>
	<g>

			<rect x="1652.7" y="675.1" transform="matrix(0.7071 0.7071 -0.7071 0.7071 988.9581 -982.3359)" class="st3" width="55.1" height="55.1"/>
		<line class="st3" x1="1641.3" y1="702.6" x2="1719.2" y2="702.6"/>
		<line class="st2" x1="1680.3" y1="663.7" x2="1680.3" y2="741.6"/>

			<rect x="1693.6" y="715.9" transform="matrix(0.7071 0.7071 -0.7071 0.7071 1029.7904 -999.2492)" class="st3" width="55.1" height="55.1"/>
		<line class="st2" x1="1682.2" y1="743.4" x2="1760" y2="743.4"/>
		<line class="st3" x1="1721.1" y1="704.5" x2="1721.1" y2="782.4"/>

			<rect x="1734.4" y="675.1" transform="matrix(0.7071 0.7071 -0.7071 0.7071 1012.8771 -1040.0815)" class="st3" width="55.1" height="55.1"/>
		<line class="st3" x1="1723" y1="702.6" x2="1800.9" y2="702.6"/>
		<line class="st2" x1="1761.9" y1="663.7" x2="1761.9" y2="741.6"/>

			<rect x="1693.6" y="634.2" transform="matrix(0.7071 0.7071 -0.7071 0.7071 972.0447 -1023.1682)" class="st3" width="55.1" height="55.1"/>
		<line class="st2" x1="1682.2" y1="661.8" x2="1760" y2="661.8"/>
		<line class="st3" x1="1721.1" y1="622.8" x2="1721.1" y2="700.7"/>
	</g>
	<g>

			<rect x="1737.2" y="590.6" transform="matrix(0.7071 0.7071 -0.7071 0.7071 953.957 -1066.8359)" class="st3" width="55.1" height="55.1"/>
		<line class="st3" x1="1725.8" y1="618.1" x2="1803.7" y2="618.1"/>
		<line class="st2" x1="1764.8" y1="579.2" x2="1764.8" y2="657.1"/>

			<rect x="1778.1" y="631.4" transform="matrix(0.7071 0.7071 -0.7071 0.7071 994.7894 -1083.7493)" class="st3" width="55.1" height="55.1"/>
		<line class="st2" x1="1766.7" y1="658.9" x2="1844.5" y2="658.9"/>
		<line class="st3" x1="1805.6" y1="620" x2="1805.6" y2="697.9"/>

			<rect x="1818.9" y="590.6" transform="matrix(0.7071 0.7071 -0.7071 0.7071 977.876 -1124.5815)" class="st3" width="55.1" height="55.1"/>
		<line class="st3" x1="1807.5" y1="618.1" x2="1885.4" y2="618.1"/>
		<line class="st2" x1="1846.4" y1="579.2" x2="1846.4" y2="657.1"/>

			<rect x="1778.1" y="549.7" transform="matrix(0.7071 0.7071 -0.7071 0.7071 937.0437 -1107.6682)" class="st3" width="55.1" height="55.1"/>
		<line class="st2" x1="1766.7" y1="577.3" x2="1844.5" y2="577.3"/>
		<line class="st3" x1="1805.6" y1="538.3" x2="1805.6" y2="616.2"/>
	</g>
	<g>
		<polyline class="st3" points="1597.2,580.6 1636.1,619.5 1597.2,658.5 		"/>
		<line class="st3" x1="1558.2" y1="619.5" x2="1636.1" y2="619.5"/>
		<line class="st2" x1="1597.2" y1="580.6" x2="1597.2" y2="658.5"/>
		<polyline class="st3" points="1599.1,660.4 1638,621.4 1677,660.4 1638,699.3 		"/>
		<line class="st2" x1="1599.1" y1="660.4" x2="1677" y2="660.4"/>
		<line class="st3" x1="1638" y1="621.4" x2="1638" y2="699.3"/>

			<rect x="1610.5" y="551.2" transform="matrix(0.7071 0.7071 -0.7071 0.7071 888.9557 -988.7516)" class="st3" width="55.1" height="55.1"/>
		<line class="st2" x1="1599.1" y1="578.7" x2="1677" y2="578.7"/>
		<line class="st3" x1="1638" y1="539.7" x2="1638" y2="617.6"/>
	</g>
	<g>
		<polyline class="st3" points="1509.2,493.6 1548.1,532.5 1509.2,571.5 1470.2,532.5 		"/>
		<line class="st3" x1="1470.2" y1="532.5" x2="1548.1" y2="532.5"/>
		<line class="st2" x1="1509.2" y1="493.6" x2="1509.2" y2="571.5"/>

			<rect x="1522.5" y="545.8" transform="matrix(0.7071 0.7071 -0.7071 0.7071 859.4203 -928.0938)" class="st3" width="55.1" height="55.1"/>
		<line class="st2" x1="1511.1" y1="573.4" x2="1589" y2="573.4"/>
		<line class="st3" x1="1550" y1="534.4" x2="1550" y2="612.3"/>

			<rect x="1563.3" y="505" transform="matrix(0.7071 0.7071 -0.7071 0.7071 842.507 -968.9261)" class="st3" width="55.1" height="55.1"/>
		<line class="st3" x1="1551.9" y1="532.5" x2="1629.8" y2="532.5"/>
		<line class="st2" x1="1590.9" y1="493.6" x2="1590.9" y2="571.5"/>

			<rect x="1522.5" y="464.2" transform="matrix(0.7071 0.7071 -0.7071 0.7071 801.6747 -952.0128)" class="st3" width="55.1" height="55.1"/>
		<line class="st2" x1="1511.1" y1="491.7" x2="1589" y2="491.7"/>
		<line class="st3" x1="1550" y1="452.8" x2="1550" y2="530.6"/>
	</g>
	<g>
		<polyline class="st3" points="1660.7,342 1699.7,303.1 1738.6,342 1699.7,381 		"/>

			<rect x="1713" y="355.3" transform="matrix(0.7071 0.7071 -0.7071 0.7071 780.5126 -1118.5939)" class="st3" width="55.1" height="55.1"/>
		<line class="st2" x1="1701.6" y1="382.9" x2="1779.5" y2="382.9"/>
		<line class="st3" x1="1740.5" y1="343.9" x2="1740.5" y2="421.8"/>

			<rect x="1753.8" y="314.5" transform="matrix(0.7071 0.7071 -0.7071 0.7071 763.5993 -1159.4261)" class="st3" width="55.1" height="55.1"/>
		<line class="st3" x1="1742.4" y1="342" x2="1820.3" y2="342"/>
		<line class="st2" x1="1781.4" y1="303.1" x2="1781.4" y2="381"/>
		<polyline class="st3" points="1779.5,301.2 1740.5,340.1 1701.6,301.2 1740.5,262.3 		"/>
		<line class="st2" x1="1701.6" y1="301.2" x2="1779.5" y2="301.2"/>
		<line class="st3" x1="1740.5" y1="262.3" x2="1740.5" y2="340.1"/>
	</g>
	<g>

			<rect x="554.1" y="842.5" transform="matrix(0.7071 0.7071 -0.7071 0.7071 785.5847 -156.4044)" class="st3" width="55.1" height="55.1"/>
		<line class="st3" x1="542.6" y1="870.1" x2="620.5" y2="870.1"/>
		<line class="st2" x1="581.6" y1="831.1" x2="581.6" y2="909"/>
		<polyline class="st3" points="622.4,949.9 583.5,910.9 622.4,872 661.4,910.9 		"/>
		<line class="st2" x1="583.5" y1="910.9" x2="661.4" y2="910.9"/>
		<line class="st3" x1="622.4" y1="872" x2="622.4" y2="949.9"/>

			<rect x="635.7" y="842.5" transform="matrix(0.7071 0.7071 -0.7071 0.7071 809.5037 -214.1501)" class="st3" width="55.1" height="55.1"/>
		<line class="st3" x1="624.3" y1="870.1" x2="702.2" y2="870.1"/>
		<line class="st2" x1="663.3" y1="831.1" x2="663.3" y2="909"/>

			<rect x="594.9" y="801.7" transform="matrix(0.7071 0.7071 -0.7071 0.7071 768.6713 -197.2368)" class="st3" width="55.1" height="55.1"/>
		<line class="st2" x1="583.5" y1="829.3" x2="661.4" y2="829.3"/>
		<line class="st3" x1="622.4" y1="790.3" x2="622.4" y2="868.2"/>
	</g>
	<g>

			<rect x="677" y="801.2" transform="matrix(0.7071 0.7071 -0.7071 0.7071 792.3937 -255.4572)" class="st3" width="55.1" height="55.1"/>
		<line class="st2" x1="665.6" y1="828.8" x2="743.5" y2="828.8"/>
		<line class="st3" x1="704.6" y1="789.8" x2="704.6" y2="867.7"/>

			<rect x="717.9" y="760.4" transform="matrix(0.7071 0.7071 -0.7071 0.7071 775.4804 -296.2895)" class="st3" width="55.1" height="55.1"/>
		<line class="st3" x1="706.4" y1="787.9" x2="784.3" y2="787.9"/>
		<line class="st2" x1="745.4" y1="749" x2="745.4" y2="826.9"/>

			<rect x="677" y="719.6" transform="matrix(0.7071 0.7071 -0.7071 0.7071 734.6481 -279.3762)" class="st3" width="55.1" height="55.1"/>
		<line class="st2" x1="665.6" y1="747.1" x2="743.5" y2="747.1"/>
		<line class="st3" x1="704.6" y1="708.2" x2="704.6" y2="786.1"/>
	</g>
	<g>

			<rect x="834.2" y="759" transform="matrix(0.7071 0.7071 -0.7071 0.7071 808.5439 -378.9606)" class="st3" width="55.1" height="55.1"/>
		<line class="st3" x1="822.8" y1="786.5" x2="900.7" y2="786.5"/>
		<line class="st2" x1="861.7" y1="747.6" x2="861.7" y2="825.5"/>

			<rect x="875" y="799.8" transform="matrix(0.7071 0.7071 -0.7071 0.7071 849.3762 -395.8739)" class="st3" width="55.1" height="55.1"/>
		<line class="st2" x1="863.6" y1="827.4" x2="941.5" y2="827.4"/>
		<line class="st3" x1="902.6" y1="788.4" x2="902.6" y2="866.3"/>

			<rect x="915.8" y="759" transform="matrix(0.7071 0.7071 -0.7071 0.7071 832.4629 -436.7062)" class="st3" width="55.1" height="55.1"/>
		<line class="st3" x1="904.4" y1="786.5" x2="982.3" y2="786.5"/>
		<line class="st2" x1="943.4" y1="747.6" x2="943.4" y2="825.5"/>
		<polyline class="st3" points="941.5,745.7 902.6,784.6 863.6,745.7 902.6,706.7 		"/>
		<line class="st2" x1="863.6" y1="745.7" x2="941.5" y2="745.7"/>
		<line class="st3" x1="902.6" y1="706.7" x2="902.6" y2="784.6"/>
	</g>
	<g>

			<rect x="410.3" y="101.2" transform="matrix(0.7071 0.7071 -0.7071 0.7071 219.3105 -271.9084)" class="st3" width="55.1" height="55.1"/>
		<line class="st3" x1="398.9" y1="128.8" x2="476.8" y2="128.8"/>
		<line class="st2" x1="437.9" y1="89.8" x2="437.9" y2="167.7"/>
		<polyline class="st3" points="558.5,128.8 519.5,167.7 480.6,128.8 519.5,89.8 		"/>
		<line class="st3" x1="480.6" y1="128.8" x2="558.5" y2="128.8"/>
		<line class="st2" x1="519.5" y1="89.8" x2="519.5" y2="167.7"/>

			<rect x="451.2" y="60.4" transform="matrix(0.7071 0.7071 -0.7071 0.7071 202.3972 -312.7407)" class="st3" width="55.1" height="55.1"/>
		<line class="st2" x1="439.8" y1="87.9" x2="517.7" y2="87.9"/>
		<line class="st3" x1="478.7" y1="49" x2="478.7" y2="126.9"/>
	</g>
</g>
</svg>
