<!--?xml version="1.0" encoding="utf-8"?-->
<!-- Generator: Adobe Illustrator 22.0.1, SVG Export Plug-In . SVG Version: 6.00 Build 0)  -->
<svg version="1.1" id="Layer_1" xmlns="http://www.w3.org/2000/svg" xmlns:xlink="http://www.w3.org/1999/xlink" x="0px" y="0px" viewBox="0 0 166.7 19.3" style="" xml:space="preserve" class="">
<style type="text/css">
	.st0{fill:url(#SVGID_1_);}
	.st1{fill:none;stroke:url(#SVGID_2_);stroke-miterlimit:10;}
</style>
<g>
	<linearGradient id="SVGID_1_" gradientUnits="userSpaceOnUse" x1="0" y1="14.3112" x2="10" y2="14.3112">
		<stop offset="1" style="stop-color:#DE744F"></stop>
		<stop offset="1" style="stop-color:#DE7452;stop-opacity:0.8771"></stop>
		<stop offset="1" style="stop-color:#E0755B;stop-opacity:0.7258"></stop>
		<stop offset="1" style="stop-color:#E27567;stop-opacity:0.5594"></stop>
		<stop offset="1" style="stop-color:#E67779;stop-opacity:0.3822"></stop>
		<stop offset="1" style="stop-color:#EA788F;stop-opacity:0.1965"></stop>
		<stop offset="1" style="stop-color:#F17BA9;stop-opacity:6.231487e-03"></stop>
		<stop offset="1" style="stop-color:#F27BAA;stop-opacity:0"></stop>
	</linearGradient>
	<path class="st0 fgsPQKyj_0" d="M0,14.3A5,5 0,1,1 10,14.3A5,5 0,1,1 0,14.3"></path>
	<linearGradient id="SVGID_2_" gradientUnits="userSpaceOnUse" x1="4" y1="9.6647" x2="166.7069" y2="9.6647">
		<stop offset="0.627" style="stop-color:#DE744F"></stop>
		<stop offset="0.6729" style="stop-color:#DE7452;stop-opacity:0.8771"></stop>
		<stop offset="0.7293" style="stop-color:#E0755B;stop-opacity:0.7258"></stop>
		<stop offset="0.7914" style="stop-color:#E27567;stop-opacity:0.5594"></stop>
		<stop offset="0.8575" style="stop-color:#E67779;stop-opacity:0.3822"></stop>
		<stop offset="0.9267" style="stop-color:#EA788F;stop-opacity:0.1965"></stop>
		<stop offset="0.9977" style="stop-color:#F17BA9;stop-opacity:6.231487e-03"></stop>
		<stop offset="1" style="stop-color:#F27BAA;stop-opacity:0"></stop>
	</linearGradient>
	<path class="st1 fgsPQKyj_1" d="M4,14.3L14,14.3L23.5,14.8L29.5,10.8L38.5,7.8L40.5,1.8L47.5,2.8L51.5,9.8L57,11.3L63,10.3L66.5,11.8L
		69.5,15.8L77.5,18.8L87.5,16.8L96.5,11.8L106,8.3L111.5,0.8L116.5,6.8L120.5,7.8L122.5,9.8L124,11.3L126,13.3L129,13.3L132,14.3L
		137,15.3L145.5,13.8L155.5,11.8L166.5,16.8"></path>
</g>
<style data-made-with="vivus-instant">.fgsPQKyj_0{stroke-dasharray:32 34;stroke-dashoffset:33;}.start .fgsPQKyj_0{animation:fgsPQKyj_draw_0 7200ms linear 0ms infinite,fgsPQKyj_fade 7200ms linear 0ms infinite;}.fgsPQKyj_1{stroke-dasharray:189 191;stroke-dashoffset:190;}.start .fgsPQKyj_1{animation:fgsPQKyj_draw_1 7200ms linear 0ms infinite,fgsPQKyj_fade 7200ms linear 0ms infinite;}@keyframes fgsPQKyj_draw{100%{stroke-dashoffset:0;}}@keyframes fgsPQKyj_fade{0%{stroke-opacity:1;}94.44444444444444%{stroke-opacity:1;}100%{stroke-opacity:0;}}@keyframes fgsPQKyj_draw_0{11.11111111111111%{stroke-dashoffset: 33}38.88888888888889%{ stroke-dashoffset: 0;}100%{ stroke-dashoffset: 0;}}@keyframes fgsPQKyj_draw_1{25%{stroke-dashoffset: 190}52.77777777777778%{ stroke-dashoffset: 0;}100%{ stroke-dashoffset: 0;}}</style></svg>
