<?xml version="1.0" encoding="utf-8"?>
<!-- Generator: Adobe Illustrator 22.0.1, SVG Export Plug-In . SVG Version: 6.00 Build 0)  -->
<svg version="1.1" id="Layer_1" xmlns="http://www.w3.org/2000/svg" xmlns:xlink="http://www.w3.org/1999/xlink" x="0px" y="0px"
	 viewBox="0 0 1280 1024" style="enable-background:new 0 0 1280 1024;" xml:space="preserve">
<style type="text/css">
	.st0{fill:url(#SVGID_1_);}
	.st1{fill:url(#SVGID_2_);}
</style>
<g>
	<linearGradient id="SVGID_1_" gradientUnits="userSpaceOnUse" x1="559.1053" y1="471.1203" x2="576.652" y2="471.1203">
		<stop  offset="0" style="stop-color:#9E005D"/>
		<stop  offset="1" style="stop-color:#662D91"/>
	</linearGradient>
	<polygon class="st0" points="573.7,477.5 576.7,471.6 576.6,464.7 573.5,470.8 573.5,470.8 562.5,470.8 559.1,477.5 559.1,477.5 
		573.7,477.5 	"/>
	<linearGradient id="SVGID_2_" gradientUnits="userSpaceOnUse" x1="544.652" y1="487.158" x2="570.092" y2="487.158">
		<stop  offset="0" style="stop-color:#9E005D"/>
		<stop  offset="1" style="stop-color:#662D91"/>
	</linearGradient>
	<path class="st1" d="M567,490.9l3.1-6.3c0,0,0-6,0-6.9c0,0,0-0.1,0,0l-3,6.1h-0.2l-11,0.2l-3.1,6.2l-4.6,0.1l-3.5,6.4l8.3,0.2
		l3-5.9H567L567,490.9z"/>
</g>
</svg>
