<?xml version="1.0" encoding="utf-8"?>
<!-- Generator: Adobe Illustrator 22.0.1, SVG Export Plug-In . SVG Version: 6.00 Build 0)  -->
<svg version="1.1" id="Layer_1" xmlns="http://www.w3.org/2000/svg" xmlns:xlink="http://www.w3.org/1999/xlink" x="0px" y="0px"
	 viewBox="0 0 1920 1080" style="enable-background:new 0 0 1920 1080;" xml:space="preserve">
<style type="text/css">
	.st0{fill:#FFFFFF;}
	.st1{opacity:0.38;}
	.st2{fill:#CCCCCC;}
	.st3{font-family:'LeelawadeeUI-Semilight';}
	.st4{font-size:15.8731px;}
	.st5{opacity:0.38;fill:none;stroke:#CCCCCC;stroke-width:0.25;stroke-miterlimit:10;}
	.st6{font-size:15.3832px;}
	.st7{fill:none;stroke:#18C3EA;stroke-width:0.25;stroke-miterlimit:10;}
	.st8{font-family:'MyriadPro-Regular';}
	.st9{font-size:11px;}
	.st10{font-family:'LeelawadeeUI';}
</style>
<g>
	<g>
		<path class="st0" d="M944,579.5c-2.8-4.9-5.6-9.7-8.4-14.6l-4.1-7.3l-4.1-7.4c-2.7-4.9-5.4-9.8-8.1-14.8c-2.7-4.9-5.3-9.9-8-14.8
			l-0.7-1.2h1.4l7.9,0l7.9,0c5.2,0,10.5,0.1,15.7,0.1c5.2,0.1,10.5,0.1,15.7,0.2s10.5,0.2,15.7,0.4c-5.2,0.2-10.5,0.3-15.7,0.4
			s-10.5,0.2-15.7,0.2c-5.2,0.1-10.5,0.1-15.7,0.1l-7.9,0l-7.9,0l0.8-1.2c2.7,4.9,5.3,9.9,8,14.8s5.3,9.9,7.9,14.9l3.9,7.5l3.9,7.5
			C938.9,569.5,941.5,574.5,944,579.5z"/>
		<path class="st0" d="M918,523.5c2.8,4.9,5.5,9.8,8.2,14.7l4,7.4c0.7,1.2,1.3,2.5,2,3.7l2,3.7l2,3.7l2,3.7l4,7.4l4,7.4l3.9,7.4
			h-1.5l3.9-7.3l4-7.3l4-7.3l2-3.6l2-3.6l2-3.6c0.7-1.2,1.3-2.4,2-3.6l4-7.3c2.7-4.8,5.4-9.7,8.2-14.5c-2.4,5-5,9.9-7.5,14.8
			l-3.8,7.4c-0.6,1.2-1.3,2.5-1.9,3.7l-1.9,3.7l-1.9,3.7l-1.9,3.7l-3.9,7.3l-3.9,7.3l-3.9,7.3l-0.8,1.4l-0.7-1.4l-3.9-7.4l-3.9-7.5
			l-3.9-7.5l-1.9-3.7l-1.9-3.7l-1.9-3.7c-0.6-1.2-1.3-2.5-1.9-3.7l-3.8-7.5C923,533.6,920.5,528.6,918,523.5z"/>
		<path class="st0" d="M949.4,576c2.4-5.1,5-10.1,7.5-15.1l3.8-7.5l3.8-7.5c2.6-5,5.1-10,7.7-15c2.6-5,5.2-10,7.8-14.9l0.8,1.2
			l-7.8,0l-7.8,0c-5.2,0-10.5-0.1-15.7-0.1c-5.2-0.1-10.5-0.1-15.7-0.2c-5.2-0.1-10.5-0.2-15.7-0.4c5.2-0.2,10.5-0.3,15.7-0.4
			c5.2-0.1,10.5-0.2,15.7-0.2c5.2-0.1,10.5-0.1,15.7-0.1l7.8,0l7.8,0h1.4l-0.6,1.2c-2.6,5-5.2,10-7.9,14.9s-5.3,9.9-8,14.9l-4,7.4
			l-4.1,7.4C954.9,566.2,952.2,571.2,949.4,576z"/>
	</g>
	<g class="st1">
		<g>
			<path class="st0" d="M848.1,665.2c-0.1-8.2,3.3-16.3,9-22.2c2.9-2.9,6.3-5.4,10.1-7c3.8-1.7,7.9-2.6,12.1-2.7
				c8.4-0.2,16.9,3,23,9c3,3,5.5,6.5,7.2,10.5c1.7,3.9,2.5,8.2,2.5,12.5c0,4.3-0.9,8.6-2.5,12.5c-1.7,3.9-4.1,7.5-7.2,10.5
				c-6.1,5.9-14.6,9.2-23,9c-4.2-0.1-8.3-1-12.1-2.7c-3.8-1.7-7.2-4.1-10.1-7.1C851.3,681.5,848,673.3,848.1,665.2z M848.1,665.2
				c0,4.1,0.8,8.2,2.4,11.9c1.6,3.8,4,7.2,6.9,10c5.8,5.7,13.9,8.7,21.9,8.5c4-0.1,7.9-1,11.5-2.6c3.6-1.6,6.9-3.9,9.6-6.7
				c5.5-5.6,8.6-13.4,8.6-21.2c0-7.8-3.1-15.5-8.6-21.2c-2.7-2.8-6-5.1-9.6-6.7c-3.6-1.6-7.6-2.5-11.5-2.6c-8-0.2-16.1,2.9-21.9,8.5
				c-2.9,2.8-5.3,6.2-6.9,10C848.9,657,848.1,661.1,848.1,665.2z"/>
		</g>
	</g>
	<g class="st1">
		<path class="st0" d="M824.4,586.5L808,587c-5.5,0.2-11.1,0.3-16.7,0.4l-0.8,0l0-0.9c-0.1-6-0.2-12.1-0.3-18.1
			c-0.1-6-0.2-12.1-0.2-18.1l-0.1-18.1l0-18.1l0-1.5l1.5,0c11,0,22.1,0,33.1,0.1l1.4,0l0,1.4c-0.1,6.1-0.1,12.2-0.2,18.3l-0.3,18.2
			c-0.1,6.1-0.3,12.1-0.4,18.1L824.4,586.5z M824.4,586.5l-0.9-36.6l-0.3-18c-0.1-6-0.1-11.9-0.2-17.9l1.4,1.4
			c-11,0.1-22.1,0.1-33.1,0.1l1.5-1.5l0,18.1l-0.1,18.1c0,6-0.1,12.1-0.2,18.1c-0.1,6-0.2,12.1-0.3,18.1l-0.9-0.9
			c5.4,0.1,10.9,0.3,16.4,0.4L824.4,586.5z"/>
	</g>
	<g class="st1">
		<path class="st0" d="M996.4,444c-0.3-5.5-0.4-11-0.6-16.5c-0.2-5.5-0.3-11-0.4-16.5l0-1l1,0l19.3-0.3c6.4-0.1,12.9-0.2,19.3-0.2
			h1.5l0,1.5c0,6.3,0.1,12.6,0,18.9c0,6.3,0,12.6-0.1,18.9l0,2.4l-2-1.2l-13.3-7.6l-13.3-7.7c-4.4-2.6-8.8-5.2-13.2-7.8
			c-4.4-2.6-8.8-5.3-13.1-8c4.6,2.3,9.1,4.7,13.7,7c4.6,2.3,9.1,4.7,13.6,7.1l13.5,7.2l13.5,7.3l-2.1,1.2
			c-0.1-6.3-0.1-12.6-0.1-18.9c0-6.3,0-12.6,0-18.9l1.5,1.5c-6.4,0-12.9-0.1-19.3-0.2l-19.3-0.3l1-1c-0.1,5.5-0.2,11-0.4,16.5
			C996.8,433,996.6,438.5,996.4,444z"/>
	</g>
	<g class="st1">
		<path class="st0" d="M975.1,429.9c5.3,2.2,10.4,4.7,15.5,7.3c2.6,1.3,5.1,2.6,7.6,3.9l7.5,4.1l7.4,4.2c2.5,1.5,4.9,2.9,7.4,4.4
			c4.9,3,9.7,6,14.4,9.3c-5.3-2.2-10.4-4.7-15.5-7.2c-2.6-1.3-5.1-2.6-7.6-3.9l-7.5-4.1l-7.4-4.2c-2.5-1.4-4.9-2.9-7.4-4.4
			C984.6,436.2,979.8,433.2,975.1,429.9z"/>
	</g>
	<g class="st1">
		<path class="st0" d="M860.5,475.2l18-0.6l18-0.5l-0.4,0.5c-0.2-3.1-0.4-6.1-0.5-9.2l-0.4-9.2l0.6,0.9l-18.4-9.3l-18.3-9.4
			l-0.8-0.4l0-0.9l-0.1-15.9l0-1.4l1.4,0l17.9-0.4l17.9-0.3l1.5,0l0,1.5l0.9,54l-2.7,0l0-33l0.1-33l1,1l-9.3-0.1
			c-3.1,0-6.2-0.1-9.3-0.1l-18.7-0.4l-0.3,0l0-0.3c0.1-4,0.2-7.9,0.3-11.9c0.1,4,0.2,7.9,0.3,11.9l-0.3-0.3l18.7-0.4
			c3.1-0.1,6.2-0.1,9.3-0.1l9.3-0.1l0.9,0l0,1l0.4,33l0.3,33l-2.7,0l-1.1-54l1.5,1.4l-17.9,0.4l-17.9,0.3l1.4-1.5l-0.1,15.9
			l-0.8-1.3l18.2,9.6l18.1,9.8l0.6,0.3l0,0.6l-0.1,9.2c0,3.1-0.1,6.1-0.2,9.2l0,0.5l-0.4,0l-18,0.1L860.5,475.2z"/>
	</g>
	<g class="st1">
		<path class="st0" d="M1067.8,540.4c-0.2-3.2-0.3-6.4-0.5-9.5l-0.3-9.5l0-0.8l0.8,0c5.1-0.2,10.1-0.3,15.2-0.4
			c5.1-0.1,10.1-0.2,15.2-0.2l1.4,0l0,1.4c0.1,3.5,0.1,7.1,0.1,10.6l0,1.5l-1.5,0l-11,0l-11,0l1.4-1.4l-0.2,13.8l-0.3,13.8
			c-0.1,4.6-0.2,9.2-0.4,13.8c-0.2,4.6-0.4,9.2-0.6,13.8c-0.3-4.6-0.5-9.2-0.6-13.8c-0.2-4.6-0.3-9.2-0.4-13.8l-0.3-13.8l-0.2-13.8
			l0-1.4l1.5,0l11,0l11,0l-1.5,1.5c0-3.5,0-7.1,0.1-10.6l1.4,1.4c-5.1-0.1-10.1-0.1-15.2-0.2c-5.1-0.1-10.1-0.2-15.2-0.4l0.8-0.8
			l-0.3,9.5C1068.1,534,1068,537.2,1067.8,540.4z"/>
	</g>
	<g class="st1">
		<path class="st0" d="M884.8,660.5c-3.4,0.6-6.8,0.9-10.3,1.2c-3.4,0.2-6.8,0.3-10.3,0.3c-3.4,0-6.8-0.1-10.3-0.3
			c-3.4-0.2-6.8-0.5-10.3-1.2c3.4-0.6,6.8-1,10.3-1.2c3.4-0.2,6.8-0.3,10.3-0.3c3.4,0,6.8,0.1,10.3,0.3
			C878,659.5,881.4,659.8,884.8,660.5z"/>
	</g>
	<g class="st1">
		<path class="st0" d="M835.2,674.1c4.9-0.6,9.8-0.9,14.7-1.2c2.5-0.1,4.9-0.2,7.4-0.3l7.4-0.1l7.4,0.1c2.5,0.1,4.9,0.1,7.4,0.2
			c4.9,0.2,9.8,0.5,14.7,1.2c-4.9,0.6-9.8,1-14.7,1.2c-2.5,0.1-4.9,0.2-7.4,0.2l-7.4,0.1l-7.4-0.1c-2.5-0.1-4.9-0.1-7.4-0.3
			C845.1,675.1,840.2,674.8,835.2,674.1z"/>
	</g>
	<g>
		<text transform="matrix(1 0 0 1 969.7646 791.1829)" class="st2 st3 st4">INTEROPERABILITY</text>
	</g>
	<circle class="st2" cx="1014.9" cy="740.7" r="3.5"/>
	<polyline class="st5" points="1053.3,795.2 961.6,795.2 961.6,775.3 1014.4,741.5 	"/>
	<g>
		<text transform="matrix(1 0 0 1 837.1396 790.595)" class="st2 st3 st6">SCALABILITY</text>
	</g>
	<circle class="st2" cx="877.1" cy="740.7" r="3.5"/>
	<polyline class="st5" points="837.3,795.2 929,795.2 929,775.3 876.2,741.5 	"/>
	<g>
	</g>
	<circle class="st2" cx="1014.9" cy="359.7" r="3.5"/>
	<polyline class="st5" points="1054.1,305.2 962.3,305.2 962.3,325.1 1015.1,358.8 	"/>
	<g>
	</g>
	<circle class="st2" cx="877.1" cy="359.7" r="3.5"/>
	<polyline class="st5" points="837.3,305.2 929,305.2 929,325.1 876.2,358.8 	"/>
	<g>
	</g>
	<circle class="st2" cx="747.8" cy="586.8" r="3.5"/>
	<g>
		<text transform="matrix(1 -3.601429e-04 3.601429e-04 1 1151.6321 619.4688)" class="st2 st3 st6">TRANSPARENCY</text>
	</g>
	<g>
		<text transform="matrix(1 0 0 1 665.2891 620.5706)" class="st2 st3 st6">SIMPLICITY</text>
	</g>
	<g>
		<text transform="matrix(1 0 0 1 826.4932 302.0496)" class="st2 st3 st6">STABILITY</text>
	</g>
	<g>
		<text transform="matrix(1 0 0 1 1000.5176 302.0496)" class="st2 st3 st6">SECURITY</text>
	</g>
	<circle class="st2" cx="1145" cy="587.5" r="3.5"/>
	<polygon class="st7" points="1010.6,587.3 1010.6,513.1 946.3,476 882.1,513.1 882.1,587.3 946.3,624.3 	"/>
	<polygon class="st5" points="1078.8,470.7 1078.8,396.6 1014.6,359.5 950.3,396.6 950.3,470.7 1014.6,507.8 	"/>
	<polygon class="st5" points="940.9,470.7 940.9,396.6 876.6,359.5 812.4,396.6 812.4,470.7 876.6,507.8 	"/>
	<polygon class="st5" points="1078.8,703.8 1078.8,629.6 1014.6,592.5 950.3,629.6 950.3,703.8 1014.6,740.9 	"/>
	<polygon class="st5" points="940.9,703.8 940.9,629.6 876.6,592.5 812.4,629.6 812.4,703.8 876.6,740.9 	"/>
	<polygon class="st5" points="876.6,586.8 876.6,512.6 812.4,475.5 748.2,512.6 748.2,586.8 812.4,623.8 	"/>
	<polygon class="st5" points="1145,586.8 1145,512.6 1080.8,475.5 1016.5,512.6 1016.5,586.8 1080.8,623.8 	"/>
	<g class="st1">
		<path class="st0" d="M1006.3,648.3c0.4,4,0.6,8,0.8,12.1c0.2,4,0.3,8.1,0.5,12.1c0.1,4,0.2,8,0.2,12.1c0,4,0.1,8,0,12.1l0,3.5
			l-2.5-2.5l-3.8-3.8l-3.7-3.9c-2.5-2.6-4.9-5.2-7.4-7.8l-0.3-0.3l0-0.4c0.1-2.9,0.2-5.9,0.4-8.8c0.2-2.9,0.4-5.9,0.6-8.8
			c0.3,2.9,0.5,5.9,0.6,8.8c0.2,2.9,0.3,5.9,0.4,8.8l-0.3-0.7c2.6,2.5,5.2,4.9,7.8,7.4l3.9,3.7l3.8,3.8l-2.5,1c0-4,0-8.1,0-12.1
			c0-4,0.1-8,0.2-12.1c0.1-4,0.3-8,0.5-12.1C1005.8,656.3,1006,652.3,1006.3,648.3z"/>
	</g>
	<g class="st1">
		<path class="st0" d="M1019.8,629.8c0.7,9.3,1,18.6,1.3,27.9c0.1,4.6,0.2,9.3,0.2,13.9l0,7l0,7l-2.5-1c2.5-2.5,5-4.9,7.6-7.4
			c2.5-2.5,5.1-4.8,7.7-7.3l-0.3,0.7c0.1-3.2,0.2-6.5,0.4-9.7c0.2-3.2,0.4-6.5,0.6-9.7c0.3,3.2,0.5,6.5,0.6,9.7
			c0.2,3.2,0.3,6.5,0.4,9.7l0,0.4l-0.3,0.3c-2.4,2.6-4.8,5.1-7.3,7.7c-2.4,2.5-4.9,5.1-7.4,7.6l-2.5,2.5l0-3.5l0-7l0-7
			c0-4.6,0.1-9.3,0.2-13.9C1018.8,648.4,1019.1,639.1,1019.8,629.8z"/>
	</g>
	<text transform="matrix(1 0 0 1 969.7754 807.8809)"><tspan x="0" y="0" class="st2 st8 st9">T</tspan><tspan x="5.5" y="0" class="st2 st10 st9">o exchange and make use of information between system chains.</tspan></text>
	<text transform="matrix(1 0 0 1 1151.6201 635.8809)" class="st2 st10 st9">Core pillar for open and honest governance context.</text>
	<text transform="matrix(1 0 0 1 659.8682 807.8809)" class="st2 st10 st9">The ability to reveal potential in a range of capabilities</text>
	<text transform="matrix(1 0 0 1 510.8037 635.8809)" class="st2 st10 st9">The ease of integration user-friendly ecosystem</text>
	<text transform="matrix(1 0 0 1 679.7754 316.8809)" class="st2 st10 st9">The permanent safe ecosystem for business</text>
	<text transform="matrix(1 0 0 1 1000.5176 316.8809)" class="st2 st10 st9">The sufficient conditions to be protected and safe</text>
</g>
</svg>
