<!--?xml version="1.0" encoding="utf-8"?-->
<!-- Generator: Adobe Illustrator 22.0.1, SVG Export Plug-In . SVG Version: 6.00 Build 0)  -->
<svg version="1.1" id="Layer_1" xmlns="http://www.w3.org/2000/svg" xmlns:xlink="http://www.w3.org/1999/xlink" x="0px" y="0px" viewBox="0 0 171.5 10" style="" xml:space="preserve" class="">
<style type="text/css">
	.st0{fill:url(#SVGID_1_);}
	.st1{fill:none;stroke:url(#SVGID_2_);stroke-miterlimit:10;}
</style>
<g>
	<linearGradient id="SVGID_1_" gradientUnits="userSpaceOnUse" x1="0" y1="5" x2="10" y2="5">
		<stop offset="1" style="stop-color:#1EC2EA"></stop>
		<stop offset="1" style="stop-color:#30C4EA;stop-opacity:0.8721"></stop>
		<stop offset="1" style="stop-color:#51C8EC;stop-opacity:0.7145"></stop>
		<stop offset="1" style="stop-color:#75D0EE;stop-opacity:0.5413"></stop>
		<stop offset="1" style="stop-color:#9EDCF2;stop-opacity:0.3569"></stop>
		<stop offset="1" style="stop-color:#CEECF8;stop-opacity:0.1658"></stop>
		<stop offset="1" style="stop-color:#FFFFFF;stop-opacity:0"></stop>
	</linearGradient>
	<path class="st0 ZuywNUUQ_0" d="M0,5A5,5 0,1,1 10,5A5,5 0,1,1 0,5"></path>
	<linearGradient id="SVGID_2_" gradientUnits="userSpaceOnUse" x1="1.4019" y1="5.1179" x2="171.5" y2="5.1179">
		<stop offset="0.6946" style="stop-color:#1EC2EA"></stop>
		<stop offset="0.7337" style="stop-color:#30C4EA;stop-opacity:0.8721"></stop>
		<stop offset="0.7818" style="stop-color:#51C8EC;stop-opacity:0.7145"></stop>
		<stop offset="0.8347" style="stop-color:#75D0EE;stop-opacity:0.5413"></stop>
		<stop offset="0.891" style="stop-color:#9EDCF2;stop-opacity:0.3569"></stop>
		<stop offset="0.9494" style="stop-color:#CEECF8;stop-opacity:0.1658"></stop>
		<stop offset="1" style="stop-color:#FFFFFF;stop-opacity:0"></stop>
	</linearGradient>
	<path class="st1 ZuywNUUQ_1" d="M1.5,5.5l5-1l4,1h1h3l2-1h1h2l2,1h3h1h3h3l4-2l2,1h1h6h3h5l2,2l1-2h2h5h1h1h3h3h3h4h7h3h4l1-1l2,1h4l2,1l3-1h4
		h6L118,5h2.8l1.8-0.5h2h2h5c0,0,0,0,1,0s3,1,3,1s0,0,1,0s3,0,3,0l2-1h1h9h20"></path>
</g>
<style data-made-with="vivus-instant">.ZuywNUUQ_0{stroke-dasharray:32 34;stroke-dashoffset:33;}.start .ZuywNUUQ_0{animation:ZuywNUUQ_draw_0 7200ms linear 0ms infinite,ZuywNUUQ_fade 7200ms linear 0ms infinite;}.ZuywNUUQ_1{stroke-dasharray:176 178;stroke-dashoffset:177;}.start .ZuywNUUQ_1{animation:ZuywNUUQ_draw_1 7200ms linear 0ms infinite,ZuywNUUQ_fade 7200ms linear 0ms infinite;}@keyframes ZuywNUUQ_draw{100%{stroke-dashoffset:0;}}@keyframes ZuywNUUQ_fade{0%{stroke-opacity:1;}94.44444444444444%{stroke-opacity:1;}100%{stroke-opacity:0;}}@keyframes ZuywNUUQ_draw_0{11.11111111111111%{stroke-dashoffset: 33}52.77777777777778%{ stroke-dashoffset: 0;}100%{ stroke-dashoffset: 0;}}@keyframes ZuywNUUQ_draw_1{11.11111111111111%{stroke-dashoffset: 177}52.77777777777778%{ stroke-dashoffset: 0;}100%{ stroke-dashoffset: 0;}}</style></svg>
