<?xml version="1.0" encoding="utf-8"?>
<!-- Generator: Adobe Illustrator 22.0.1, SVG Export Plug-In . SVG Version: 6.00 Build 0)  -->
<svg version="1.1" id="Layer_1" xmlns="http://www.w3.org/2000/svg" xmlns:xlink="http://www.w3.org/1999/xlink" x="0px" y="0px"
	 viewBox="0 0 988 237.8" style="enable-background:new 0 0 988 237.8;" xml:space="preserve">
<style type="text/css">
	.st0{stroke:#000000;stroke-miterlimit:10;}
	.st1{stroke:#000000;stroke-width:0.25;stroke-miterlimit:10;}
	.st2{fill:#FFFFFF;}
	.st3{fill:#FFFFFF;stroke:#FFFFFF;stroke-width:0.25;stroke-miterlimit:10;}
</style>
<g>
	<g id="Layer_2_1_">
		<g id="BACKGROUNDS_1_">
			<path class="st0" d="M106,218.4c-8.9-16.5-17.7-33.2-26.4-49.8l-13-25l-12.9-25.1C45.1,101.8,36.6,85,28.2,68.3
				S11.3,34.7,2.9,17.8l-2.1-4.2h4.4l24.8,0.1l24.8,0.1c16.5,0.1,33.1,0.3,49.6,0.5c16.5,0.2,33.1,0.5,49.6,0.8
				c16.5,0.3,33.1,0.8,49.6,1.4c-16.5,0.6-33.1,1-49.6,1.3c-16.5,0.4-33.1,0.6-49.6,0.8c-16.5,0.2-33.1,0.4-49.6,0.5l-24.8,0.1
				L5.3,19.4l2.4-4.2C16,32,24.4,48.9,32.7,65.7s16.6,33.8,24.8,50.7l12.3,25.4L82,167.2C90.1,184.2,98.1,201.2,106,218.4z"/>
			<path class="st0" d="M24.2,27.9c8.8,16.6,17.3,33.3,25.9,50L62.9,103c2.1,4.2,4.2,8.4,6.3,12.6l6.3,12.6l6.3,12.6l6.3,12.6
				l12.5,25.2l12.5,25.3l12.4,25.3h-4.8l12.4-24.9l12.5-24.9l12.5-24.8l6.3-12.4l6.3-12.4l6.3-12.4c2.1-4.1,4.2-8.3,6.3-12.4
				l12.8-24.7c8.6-16.4,17.1-32.9,25.9-49.2c-7.7,16.9-15.7,33.7-23.6,50.5l-12,25.1c-2,4.2-4,8.4-6,12.5l-6.1,12.5l-6.1,12.5
				l-6.1,12.5l-12.2,25l-12.3,25l-12.3,24.9l-2.4,4.9l-2.4-4.9l-12.3-25.3l-12.3-25.4l-12.2-25.4l-6.1-12.7l-6.1-12.7l-6.1-12.7
				c-2-4.2-4-8.5-6-12.7l-12-25.5C39.8,62.1,31.9,45.1,24.2,27.9z"/>
			<path class="st0" d="M123.1,206.6c7.7-17.2,15.6-34.4,23.5-51.5l12-25.6l12.1-25.6c8-17.1,16.2-34.1,24.4-51S211.5,19,219.7,2
				l2.4,4.1l-24.8-0.1L172.6,6c-16.5-0.1-33-0.3-49.5-0.5c-16.5-0.2-33-0.5-49.5-0.8C57.1,4.4,40.6,4,24.1,3.4
				c16.5-0.6,33-1,49.5-1.3s33-0.6,49.5-0.8s33-0.4,49.5-0.5l24.7-0.1l24.8-0.1h4.4l-2,4.1c-8.2,17-16.5,33.9-24.8,50.8
				S183,89.2,174.5,106l-12.7,25.3l-12.8,25.2C140.5,173.2,131.9,190,123.1,206.6z"/>
		</g>
	</g>
	<g>
		<g>
			<path class="st1" d="M286.8,104c0-0.3,0.1-0.6,0.4-0.8c0.2-0.2,0.5-0.3,0.8-0.3h25.9c0.3,0,0.6,0.1,0.8,0.3
				c0.2,0.2,0.3,0.5,0.3,0.8v1.9c0,0.3-0.1,0.6-0.3,0.8c-0.2,0.2-0.5,0.3-0.8,0.3h-22.1v26.2c0,0.3-0.1,0.5-0.4,0.8
				c-0.2,0.2-0.5,0.3-0.8,0.3h-2.7c-0.3,0-0.6-0.1-0.8-0.3c-0.2-0.2-0.4-0.5-0.4-0.8V104z M295.3,118.5c0-0.3,0.1-0.6,0.4-0.8
				c0.2-0.2,0.5-0.3,0.9-0.3h15.3c0.3,0,0.6,0.1,0.9,0.3c0.2,0.2,0.4,0.5,0.4,0.8v1.8c0,0.3-0.1,0.6-0.4,0.8
				c-0.2,0.2-0.5,0.3-0.9,0.3h-15.3c-0.3,0-0.6-0.1-0.9-0.3c-0.2-0.2-0.4-0.5-0.4-0.8V118.5z"/>
			<path class="st1" d="M336.3,104c0-0.3,0.1-0.6,0.3-0.8c0.2-0.2,0.5-0.3,0.8-0.3h19.2c1.4,0,2.7,0.3,3.9,0.8
				c1.2,0.5,2.3,1.2,3.2,2.1c0.9,0.9,1.6,1.9,2.2,3.1c0.5,1.2,0.8,2.4,0.8,3.8c0,1.1-0.2,2.2-0.6,3.2c-0.4,1-0.9,1.9-1.6,2.7
				c-0.7,0.8-1.5,1.5-2.4,2.1c-0.9,0.6-1.9,1-3,1.3l9.1,11.8c0.1,0.1,0.1,0.3,0.1,0.4c0,0.2-0.1,0.3-0.4,0.3h-4
				c-0.3,0-0.6-0.1-0.9-0.3c-0.3-0.2-0.6-0.4-0.8-0.7l-8.7-11.3H346c-0.3,0-0.6-0.1-0.8-0.3c-0.2-0.2-0.3-0.5-0.3-0.8v-1.9
				c0-0.3,0.1-0.6,0.3-0.8c0.2-0.2,0.5-0.3,0.8-0.3h10c1.6,0,3-0.5,4.2-1.6c1.2-1.1,1.8-2.4,1.8-3.9c0-1.5-0.6-2.8-1.8-3.9
				c-1.2-1.1-2.6-1.6-4.2-1.6h-14.8v26.2c0,0.3-0.1,0.6-0.4,0.8c-0.2,0.2-0.5,0.3-0.9,0.3h-2.6c-0.3,0-0.6-0.1-0.8-0.3
				c-0.2-0.2-0.3-0.5-0.3-0.8V104z"/>
			<path class="st1" d="M397.8,130.1h22.7c0.3,0,0.6,0.1,0.8,0.3c0.2,0.2,0.4,0.5,0.4,0.8v2c0,0.3-0.1,0.5-0.4,0.8
				c-0.2,0.2-0.5,0.3-0.8,0.3h-26.5c-0.3,0-0.6-0.1-0.8-0.3c-0.2-0.2-0.4-0.5-0.4-0.8V104c0-0.3,0.1-0.6,0.4-0.8
				c0.2-0.2,0.5-0.3,0.8-0.3h26.1c0.3,0,0.6,0.1,0.9,0.3c0.2,0.2,0.4,0.5,0.4,0.8v2c0,0.3-0.1,0.5-0.4,0.8c-0.2,0.2-0.5,0.3-0.9,0.3
				h-22.4V130.1z M401.4,116.9c0-0.3,0.1-0.6,0.3-0.8c0.2-0.2,0.5-0.3,0.8-0.3h16c0.3,0,0.6,0.1,0.8,0.3c0.2,0.2,0.4,0.5,0.4,0.8
				v1.9c0,0.3-0.1,0.6-0.4,0.8c-0.2,0.2-0.5,0.3-0.8,0.3h-16c-0.3,0-0.6-0.1-0.8-0.3c-0.2-0.2-0.3-0.5-0.3-0.8V116.9z"/>
			<path class="st1" d="M446.2,103.9c0-0.3,0.1-0.6,0.4-0.8c0.2-0.2,0.5-0.3,0.8-0.3h2.7c0.3,0,0.6,0.1,0.8,0.3
				c0.2,0.2,0.4,0.5,0.4,0.8v29.3c0,0.3-0.1,0.5-0.4,0.8c-0.2,0.2-0.5,0.3-0.8,0.3h-2.7c-0.3,0-0.6-0.1-0.8-0.3
				c-0.2-0.2-0.4-0.5-0.4-0.8V103.9z"/>
			<path class="st1" d="M472.5,103.9c0-0.3,0.1-0.5,0.3-0.8c0.2-0.2,0.5-0.3,0.8-0.3h29.9c0.3,0,0.6,0.1,0.8,0.3
				c0.2,0.2,0.3,0.5,0.3,0.8v2c0,0.8-0.4,1.2-1.2,1.2h-29.9c-0.3,0-0.6-0.1-0.8-0.3c-0.2-0.2-0.3-0.5-0.3-0.8V103.9z M486,111.5
				c0-0.3,0.1-0.6,0.4-0.8c0.2-0.2,0.5-0.3,0.9-0.3h2.6c0.3,0,0.6,0.1,0.8,0.3c0.2,0.2,0.3,0.5,0.3,0.8v21.7c0,0.3-0.1,0.6-0.3,0.8
				c-0.2,0.2-0.5,0.3-0.8,0.3h-2.6c-0.3,0-0.6-0.1-0.9-0.3c-0.2-0.2-0.4-0.5-0.4-0.8V111.5z"/>
			<path class="st1" d="M541.9,117.8l14.7,15.6c0.2,0.2,0.3,0.4,0.3,0.7c0,0.2-0.2,0.3-0.4,0.3h-4.9c-0.3,0-0.6-0.2-1-0.5L538.8,121
				l-10.9,12.8c-0.1,0.1-0.3,0.2-0.4,0.3c-0.2,0.1-0.3,0.2-0.5,0.2h-4.5c-0.3,0-0.4-0.1-0.4-0.4c0-0.2,0.1-0.4,0.3-0.6l26.2-30.1
				c0.3-0.3,0.6-0.5,0.9-0.5h4.4c0.3,0,0.5,0.1,0.5,0.4c0,0.1-0.1,0.3-0.3,0.6L541.9,117.8z M522.5,103.8c-0.2-0.2-0.3-0.4-0.3-0.7
				c0-0.2,0.1-0.3,0.4-0.3h4.7c0.3,0,0.6,0.2,1,0.5l7.9,8.6c0.1,0.2,0.1,0.3,0.1,0.4c0,0.1,0,0.2-0.1,0.3l-2.2,2.6
				c-0.1,0.1-0.3,0.2-0.4,0.2c-0.1,0-0.3-0.1-0.4-0.2L522.5,103.8z"/>
			<path class="st1" d="M642.1,104c0-0.3,0.1-0.6,0.4-0.8c0.2-0.2,0.5-0.3,0.9-0.3h2.1c0.3,0,0.6,0.1,0.9,0.3
				c0.2,0.2,0.4,0.5,0.4,0.8v29.3c0,0.3-0.1,0.6-0.4,0.8c-0.2,0.2-0.5,0.3-0.9,0.3h-2.4c-0.3,0-0.7-0.1-1.1-0.3
				c-0.4-0.2-0.7-0.4-1-0.7l-26.9-29.6c-0.2-0.2-0.3-0.4-0.3-0.7c0-0.2,0.1-0.3,0.4-0.3h3.9c0.3,0,0.6,0.2,1,0.5l23,25.3V104z
				 M618.4,133.2c0,0.3-0.1,0.6-0.3,0.8c-0.2,0.2-0.5,0.3-0.8,0.3h-2.2c-0.3,0-0.6-0.1-0.8-0.3c-0.2-0.2-0.3-0.5-0.3-0.8v-24
				c0-0.2,0.1-0.4,0.3-0.4c0.2,0,0.4,0.2,0.8,0.5l3,3.4c0.3,0.4,0.4,0.7,0.4,1V133.2z"/>
			<path class="st1" d="M679.9,130.1h22.7c0.3,0,0.6,0.1,0.8,0.3c0.2,0.2,0.4,0.5,0.4,0.8v2c0,0.3-0.1,0.5-0.4,0.8
				c-0.2,0.2-0.5,0.3-0.8,0.3h-26.5c-0.3,0-0.6-0.1-0.8-0.3c-0.2-0.2-0.4-0.5-0.4-0.8V104c0-0.3,0.1-0.6,0.4-0.8
				c0.2-0.2,0.5-0.3,0.8-0.3h26.1c0.3,0,0.6,0.1,0.9,0.3c0.2,0.2,0.4,0.5,0.4,0.8v2c0,0.3-0.1,0.5-0.4,0.8c-0.2,0.2-0.5,0.3-0.9,0.3
				h-22.4V130.1z M683.4,116.9c0-0.3,0.1-0.6,0.3-0.8c0.2-0.2,0.5-0.3,0.8-0.3h16c0.3,0,0.6,0.1,0.8,0.3c0.2,0.2,0.4,0.5,0.4,0.8
				v1.9c0,0.3-0.1,0.6-0.4,0.8c-0.2,0.2-0.5,0.3-0.8,0.3h-16c-0.3,0-0.6-0.1-0.8-0.3c-0.2-0.2-0.3-0.5-0.3-0.8V116.9z"/>
			<path class="st1" d="M721.3,103.9c0-0.3,0.1-0.5,0.3-0.8c0.2-0.2,0.5-0.3,0.8-0.3h29.9c0.3,0,0.6,0.1,0.8,0.3
				c0.2,0.2,0.3,0.5,0.3,0.8v2c0,0.8-0.4,1.2-1.2,1.2h-29.9c-0.3,0-0.6-0.1-0.8-0.3c-0.2-0.2-0.3-0.5-0.3-0.8V103.9z M734.8,111.5
				c0-0.3,0.1-0.6,0.4-0.8c0.2-0.2,0.5-0.3,0.9-0.3h2.6c0.3,0,0.6,0.1,0.8,0.3c0.2,0.2,0.3,0.5,0.3,0.8v21.7c0,0.3-0.1,0.6-0.3,0.8
				c-0.2,0.2-0.5,0.3-0.8,0.3h-2.6c-0.3,0-0.6-0.1-0.9-0.3c-0.2-0.2-0.4-0.5-0.4-0.8V111.5z"/>
			<path class="st1" d="M769.1,103.8c0-0.1-0.1-0.2-0.1-0.3c0-0.4,0.3-0.7,0.8-0.7h3.4c0.3,0,0.6,0.2,0.6,0.5l8.4,25.6l7-11.8
				c0.2-0.3,0.4-0.5,0.7-0.7c0.3-0.2,0.6-0.3,0.9-0.3h2c0.3,0,0.5,0.1,0.9,0.3c0.3,0.2,0.5,0.4,0.7,0.7l9.7,16.8
				c0,0,0.1,0.1,0.1,0.2c0,0.2-0.1,0.2-0.3,0.2h-2.4c-0.3,0-0.6-0.1-0.9-0.3c-0.3-0.2-0.5-0.4-0.7-0.7l-8-13.5l-8,13.5
				c-0.3,0.6-0.8,0.9-1.6,1h-2.3c-0.3,0-0.6-0.2-0.6-0.5L769.1,103.8z M805.7,128.9c-0.1,0.2-0.3,0.4-0.5,0.4
				c-0.2,0-0.3-0.1-0.4-0.2l-1.9-3.3c-0.1-0.2-0.1-0.3-0.1-0.4s0-0.2,0.1-0.3l7.2-21.4c0.1-0.3,0.2-0.5,0.3-0.6s0.3-0.2,0.5-0.2h3
				c0.1,0,0.2,0,0.3,0.1c0.1,0.1,0.2,0.2,0.2,0.4c0,0.1,0,0.2-0.1,0.3L805.7,128.9z"/>
			<path class="st1" d="M836.5,107c0-0.5,0.1-1,0.4-1.5c0.3-0.5,0.6-0.9,1-1.3c0.4-0.4,0.9-0.7,1.4-1s1-0.4,1.5-0.4h25.7
				c0.5,0,1,0.1,1.5,0.4c0.5,0.3,1,0.6,1.4,1c0.4,0.4,0.7,0.8,1,1.3c0.3,0.5,0.4,1,0.4,1.5v23.2c0,0.5-0.1,1-0.4,1.5
				c-0.3,0.5-0.6,0.9-1,1.3c-0.4,0.4-0.9,0.7-1.4,1c-0.5,0.3-1,0.4-1.5,0.4h-25.7c-0.5,0-1-0.1-1.5-0.4c-0.5-0.3-1-0.6-1.4-1
				c-0.4-0.4-0.7-0.8-1-1.3c-0.3-0.5-0.4-1-0.4-1.5V107z M841.5,130.1h24.4V107h-24.4V130.1z"/>
			<path class="st1" d="M898.8,104c0-0.3,0.1-0.6,0.3-0.8c0.2-0.2,0.5-0.3,0.8-0.3h19.2c1.4,0,2.7,0.3,3.9,0.8
				c1.2,0.5,2.3,1.2,3.2,2.1c0.9,0.9,1.6,1.9,2.2,3.1c0.5,1.2,0.8,2.4,0.8,3.8c0,1.1-0.2,2.2-0.6,3.2c-0.4,1-0.9,1.9-1.6,2.7
				c-0.7,0.8-1.5,1.5-2.4,2.1c-0.9,0.6-1.9,1-3,1.3l9.1,11.8c0.1,0.1,0.1,0.3,0.1,0.4c0,0.2-0.1,0.3-0.4,0.3h-4
				c-0.3,0-0.6-0.1-0.9-0.3c-0.3-0.2-0.6-0.4-0.8-0.7l-8.7-11.3h-7.5c-0.3,0-0.6-0.1-0.8-0.3c-0.2-0.2-0.3-0.5-0.3-0.8v-1.9
				c0-0.3,0.1-0.6,0.3-0.8c0.2-0.2,0.5-0.3,0.8-0.3h10c1.6,0,3-0.5,4.2-1.6c1.2-1.1,1.8-2.4,1.8-3.9c0-1.5-0.6-2.8-1.8-3.9
				c-1.2-1.1-2.6-1.6-4.2-1.6h-14.8v26.2c0,0.3-0.1,0.6-0.4,0.8c-0.2,0.2-0.5,0.3-0.9,0.3H900c-0.3,0-0.6-0.1-0.8-0.3
				c-0.2-0.2-0.3-0.5-0.3-0.8V104z"/>
			<path class="st1" d="M955.5,104c0-0.3,0.1-0.6,0.3-0.8c0.2-0.2,0.5-0.3,0.8-0.3h2.6c0.3,0,0.6,0.1,0.8,0.3
				c0.2,0.2,0.3,0.5,0.3,0.8V115l26.8,18.4c0.5,0.3,0.7,0.6,0.7,0.7c0,0.1-0.1,0.2-0.3,0.2h-5.6c-0.5,0-1-0.2-1.5-0.6l-20-13.7v13.3
				c0,0.3-0.1,0.6-0.3,0.8c-0.2,0.2-0.5,0.3-0.8,0.3h-2.6c-0.3,0-0.6-0.1-0.8-0.3c-0.2-0.2-0.3-0.5-0.3-0.8V104z M964.5,114.1
				c-0.1-0.1-0.2-0.2-0.2-0.4c0-0.2,0-0.3,0.1-0.4l14.4-10.1c0.3-0.2,0.5-0.3,0.7-0.4c0.2-0.1,0.5-0.1,0.9-0.1h5.2
				c0.2,0,0.3,0,0.3,0.1c0,0.1-0.2,0.3-0.4,0.5l-17.6,12.3c-0.2,0.1-0.3,0.1-0.4,0.1c-0.2,0-0.3,0-0.4-0.1L964.5,114.1z"/>
		</g>
	</g>
</g>
</svg>
