<?xml version="1.0" encoding="utf-8"?>
<!-- Generator: Adobe Illustrator 22.0.1, SVG Export Plug-In . SVG Version: 6.00 Build 0)  -->
<svg version="1.1" id="Layer_1" xmlns="http://www.w3.org/2000/svg" xmlns:xlink="http://www.w3.org/1999/xlink" x="0px" y="0px"
	 viewBox="0 0 987.2 236.2" style="enable-background:new 0 0 987.2 236.2;" xml:space="preserve">
<style type="text/css">
	.st0{stroke:#000000;stroke-miterlimit:10;}
	.st1{stroke:#000000;stroke-width:0.25;stroke-miterlimit:10;}
	.st2{fill:#FFFFFF;}
	.st3{fill:#FFFFFF;stroke:#FFFFFF;stroke-width:0.25;stroke-miterlimit:10;}
</style>
<g>
	<g id="Layer_2_2_">
		<g id="BACKGROUNDS_2_">
			<path class="st2" d="M105.2,217.9c-8.9-16.5-17.7-33.2-26.4-49.8l-13-25L52.9,118c-8.6-16.7-17.1-33.5-25.6-50.2
				S10.5,34.2,2.1,17.3L0,13.2h4.4l24.8,0.1L54,13.3c16.5,0.1,33.1,0.3,49.6,0.5c16.5,0.2,33.1,0.5,49.6,0.8
				c16.5,0.3,33.1,0.8,49.6,1.4c-16.5,0.6-33.1,1-49.6,1.3c-16.5,0.4-33.1,0.6-49.6,0.8c-16.5,0.2-33.1,0.4-49.6,0.5l-24.8,0.1
				L4.4,18.9l2.4-4.2c8.4,16.8,16.8,33.6,25.1,50.5S48.5,99,56.7,115.9L69,141.3l12.2,25.5C89.2,183.7,97.3,200.7,105.2,217.9z"/>
			<path class="st2" d="M23.4,27.4c8.8,16.6,17.3,33.3,25.9,50l12.8,25.1c2.1,4.2,4.2,8.4,6.3,12.6l6.3,12.6l6.3,12.6l6.3,12.6
				l12.5,25.2l12.5,25.3l12.4,25.3H120l12.4-24.9l12.5-24.9l12.5-24.8l6.3-12.4l6.3-12.4l6.3-12.4c2.1-4.1,4.2-8.3,6.3-12.4
				l12.8-24.7c8.6-16.4,17.1-32.9,25.9-49.2c-7.7,16.9-15.7,33.7-23.6,50.5l-12,25.1c-2,4.2-4,8.4-6,12.5l-6.1,12.5l-6.1,12.5
				l-6.1,12.5l-12.2,25l-12.3,25l-12.3,24.9l-2.4,4.9l-2.4-4.9l-12.3-25.3l-12.3-25.4l-12.2-25.4l-6.1-12.7L71,129.7L64.9,117
				c-2-4.2-4-8.5-6-12.7l-12-25.5C39,61.6,31.1,44.6,23.4,27.4z"/>
			<path class="st2" d="M122.3,206.1c7.7-17.2,15.6-34.4,23.5-51.5l12-25.6l12.1-25.6c8-17.1,16.2-34.1,24.4-51
				c8.2-17,16.4-33.9,24.7-50.9l2.4,4.1l-24.8-0.1l-24.7-0.1c-16.5-0.1-33-0.3-49.5-0.5c-16.5-0.2-33-0.5-49.5-0.8
				c-16.5-0.3-33-0.7-49.5-1.3c16.5-0.6,33-1,49.5-1.3s33-0.6,49.5-0.8s33-0.4,49.5-0.5l24.7-0.1L221.3,0h4.4l-2,4.1
				c-8.2,17-16.5,33.9-24.8,50.8c-8.3,16.9-16.7,33.8-25.1,50.6l-12.7,25.3L148.3,156C139.7,172.7,131.1,189.5,122.3,206.1z"/>
		</g>
	</g>
	<g>
		<g>
			<path class="st3" d="M286,103.5c0-0.3,0.1-0.6,0.4-0.8c0.2-0.2,0.5-0.3,0.8-0.3H313c0.3,0,0.6,0.1,0.8,0.3
				c0.2,0.2,0.3,0.5,0.3,0.8v1.9c0,0.3-0.1,0.6-0.3,0.8c-0.2,0.2-0.5,0.3-0.8,0.3H291v26.2c0,0.3-0.1,0.5-0.4,0.8
				c-0.2,0.2-0.5,0.3-0.8,0.3h-2.7c-0.3,0-0.6-0.1-0.8-0.3c-0.2-0.2-0.4-0.5-0.4-0.8V103.5z M294.5,118c0-0.3,0.1-0.6,0.4-0.8
				c0.2-0.2,0.5-0.3,0.9-0.3H311c0.3,0,0.6,0.1,0.9,0.3c0.2,0.2,0.4,0.5,0.4,0.8v1.8c0,0.3-0.1,0.6-0.4,0.8
				c-0.2,0.2-0.5,0.3-0.9,0.3h-15.3c-0.3,0-0.6-0.1-0.9-0.3c-0.2-0.2-0.4-0.5-0.4-0.8V118z"/>
			<path class="st3" d="M335.5,103.5c0-0.3,0.1-0.6,0.3-0.8c0.2-0.2,0.5-0.3,0.8-0.3h19.2c1.4,0,2.7,0.3,3.9,0.8
				c1.2,0.5,2.3,1.2,3.2,2.1c0.9,0.9,1.6,1.9,2.2,3.1c0.5,1.2,0.8,2.4,0.8,3.8c0,1.1-0.2,2.2-0.6,3.2c-0.4,1-0.9,1.9-1.6,2.7
				c-0.7,0.8-1.5,1.5-2.4,2.1c-0.9,0.6-1.9,1-3,1.3l9.1,11.8c0.1,0.1,0.1,0.3,0.1,0.4c0,0.2-0.1,0.3-0.4,0.3h-4
				c-0.3,0-0.6-0.1-0.9-0.3c-0.3-0.2-0.6-0.4-0.8-0.7l-8.7-11.3h-7.5c-0.3,0-0.6-0.1-0.8-0.3c-0.2-0.2-0.3-0.5-0.3-0.8v-1.9
				c0-0.3,0.1-0.6,0.3-0.8c0.2-0.2,0.5-0.3,0.8-0.3h10c1.6,0,3-0.5,4.2-1.6c1.2-1.1,1.8-2.4,1.8-3.9c0-1.5-0.6-2.8-1.8-3.9
				c-1.2-1.1-2.6-1.6-4.2-1.6h-14.8v26.2c0,0.3-0.1,0.6-0.4,0.8c-0.2,0.2-0.5,0.3-0.9,0.3h-2.6c-0.3,0-0.6-0.1-0.8-0.3
				c-0.2-0.2-0.3-0.5-0.3-0.8V103.5z"/>
			<path class="st3" d="M397,129.6h22.7c0.3,0,0.6,0.1,0.8,0.3c0.2,0.2,0.4,0.5,0.4,0.8v2c0,0.3-0.1,0.5-0.4,0.8
				c-0.2,0.2-0.5,0.3-0.8,0.3h-26.5c-0.3,0-0.6-0.1-0.8-0.3c-0.2-0.2-0.4-0.5-0.4-0.8v-29.3c0-0.3,0.1-0.6,0.4-0.8
				c0.2-0.2,0.5-0.3,0.8-0.3h26.1c0.3,0,0.6,0.1,0.9,0.3c0.2,0.2,0.4,0.5,0.4,0.8v2c0,0.3-0.1,0.5-0.4,0.8c-0.2,0.2-0.5,0.3-0.9,0.3
				H397V129.6z M400.6,116.4c0-0.3,0.1-0.6,0.3-0.8c0.2-0.2,0.5-0.3,0.8-0.3h16c0.3,0,0.6,0.1,0.8,0.3c0.2,0.2,0.4,0.5,0.4,0.8v1.9
				c0,0.3-0.1,0.6-0.4,0.8c-0.2,0.2-0.5,0.3-0.8,0.3h-16c-0.3,0-0.6-0.1-0.8-0.3c-0.2-0.2-0.3-0.5-0.3-0.8V116.4z"/>
			<path class="st3" d="M445.4,103.4c0-0.3,0.1-0.6,0.4-0.8c0.2-0.2,0.5-0.3,0.8-0.3h2.7c0.3,0,0.6,0.1,0.8,0.3
				c0.2,0.2,0.4,0.5,0.4,0.8v29.3c0,0.3-0.1,0.5-0.4,0.8c-0.2,0.2-0.5,0.3-0.8,0.3h-2.7c-0.3,0-0.6-0.1-0.8-0.3
				c-0.2-0.2-0.4-0.5-0.4-0.8V103.4z"/>
			<path class="st3" d="M471.6,103.4c0-0.3,0.1-0.5,0.3-0.8c0.2-0.2,0.5-0.3,0.8-0.3h29.9c0.3,0,0.6,0.1,0.8,0.3
				c0.2,0.2,0.3,0.5,0.3,0.8v2c0,0.8-0.4,1.2-1.2,1.2h-29.9c-0.3,0-0.6-0.1-0.8-0.3c-0.2-0.2-0.3-0.5-0.3-0.8V103.4z M485.2,111
				c0-0.3,0.1-0.6,0.4-0.8c0.2-0.2,0.5-0.3,0.9-0.3h2.6c0.3,0,0.6,0.1,0.8,0.3c0.2,0.2,0.3,0.5,0.3,0.8v21.7c0,0.3-0.1,0.6-0.3,0.8
				c-0.2,0.2-0.5,0.3-0.8,0.3h-2.6c-0.3,0-0.6-0.1-0.9-0.3c-0.2-0.2-0.4-0.5-0.4-0.8V111z"/>
			<path class="st3" d="M541.1,117.3l14.7,15.6c0.2,0.2,0.3,0.4,0.3,0.7c0,0.2-0.2,0.3-0.4,0.3h-4.9c-0.3,0-0.6-0.2-1-0.5L538,120.5
				l-10.9,12.8c-0.1,0.1-0.3,0.2-0.4,0.3c-0.2,0.1-0.3,0.2-0.5,0.2h-4.5c-0.3,0-0.4-0.1-0.4-0.4c0-0.2,0.1-0.4,0.3-0.6l26.2-30.1
				c0.3-0.3,0.6-0.5,0.9-0.5h4.4c0.3,0,0.5,0.1,0.5,0.4c0,0.1-0.1,0.3-0.3,0.6L541.1,117.3z M521.7,103.3c-0.2-0.2-0.3-0.4-0.3-0.7
				c0-0.2,0.1-0.3,0.4-0.3h4.7c0.3,0,0.6,0.2,1,0.5l7.9,8.6c0.1,0.2,0.1,0.3,0.1,0.4c0,0.1,0,0.2-0.1,0.3l-2.2,2.6
				c-0.1,0.1-0.3,0.2-0.4,0.2c-0.1,0-0.3-0.1-0.4-0.2L521.7,103.3z"/>
			<path class="st3" d="M641.3,103.5c0-0.3,0.1-0.6,0.4-0.8c0.2-0.2,0.5-0.3,0.9-0.3h2.1c0.3,0,0.6,0.1,0.9,0.3
				c0.2,0.2,0.4,0.5,0.4,0.8v29.3c0,0.3-0.1,0.6-0.4,0.8c-0.2,0.2-0.5,0.3-0.9,0.3h-2.4c-0.3,0-0.7-0.1-1.1-0.3
				c-0.4-0.2-0.7-0.4-1-0.7l-26.9-29.6c-0.2-0.2-0.3-0.4-0.3-0.7c0-0.2,0.1-0.3,0.4-0.3h3.9c0.3,0,0.6,0.2,1,0.5l23,25.3V103.5z
				 M617.6,132.7c0,0.3-0.1,0.6-0.3,0.8c-0.2,0.2-0.5,0.3-0.8,0.3h-2.2c-0.3,0-0.6-0.1-0.8-0.3c-0.2-0.2-0.3-0.5-0.3-0.8v-24
				c0-0.2,0.1-0.4,0.3-0.4c0.2,0,0.4,0.2,0.8,0.5l3,3.4c0.3,0.4,0.4,0.7,0.4,1V132.7z"/>
			<path class="st3" d="M679.1,129.6h22.7c0.3,0,0.6,0.1,0.8,0.3c0.2,0.2,0.4,0.5,0.4,0.8v2c0,0.3-0.1,0.5-0.4,0.8
				c-0.2,0.2-0.5,0.3-0.8,0.3h-26.5c-0.3,0-0.6-0.1-0.8-0.3c-0.2-0.2-0.4-0.5-0.4-0.8v-29.3c0-0.3,0.1-0.6,0.4-0.8
				c0.2-0.2,0.5-0.3,0.8-0.3h26.1c0.3,0,0.6,0.1,0.9,0.3c0.2,0.2,0.4,0.5,0.4,0.8v2c0,0.3-0.1,0.5-0.4,0.8c-0.2,0.2-0.5,0.3-0.9,0.3
				h-22.4V129.6z M682.6,116.4c0-0.3,0.1-0.6,0.3-0.8c0.2-0.2,0.5-0.3,0.8-0.3h16c0.3,0,0.6,0.1,0.8,0.3c0.2,0.2,0.4,0.5,0.4,0.8
				v1.9c0,0.3-0.1,0.6-0.4,0.8c-0.2,0.2-0.5,0.3-0.8,0.3h-16c-0.3,0-0.6-0.1-0.8-0.3c-0.2-0.2-0.3-0.5-0.3-0.8V116.4z"/>
			<path class="st3" d="M720.5,103.4c0-0.3,0.1-0.5,0.3-0.8c0.2-0.2,0.5-0.3,0.8-0.3h29.9c0.3,0,0.6,0.1,0.8,0.3
				c0.2,0.2,0.3,0.5,0.3,0.8v2c0,0.8-0.4,1.2-1.2,1.2h-29.9c-0.3,0-0.6-0.1-0.8-0.3c-0.2-0.2-0.3-0.5-0.3-0.8V103.4z M734,111
				c0-0.3,0.1-0.6,0.4-0.8c0.2-0.2,0.5-0.3,0.9-0.3h2.6c0.3,0,0.6,0.1,0.8,0.3c0.2,0.2,0.3,0.5,0.3,0.8v21.7c0,0.3-0.1,0.6-0.3,0.8
				c-0.2,0.2-0.5,0.3-0.8,0.3h-2.6c-0.3,0-0.6-0.1-0.9-0.3c-0.2-0.2-0.4-0.5-0.4-0.8V111z"/>
			<path class="st3" d="M768.3,103.3c0-0.1-0.1-0.2-0.1-0.3c0-0.4,0.3-0.7,0.8-0.7h3.4c0.3,0,0.6,0.2,0.6,0.5l8.4,25.6l7-11.8
				c0.2-0.3,0.4-0.5,0.7-0.7c0.3-0.2,0.6-0.3,0.9-0.3h2c0.3,0,0.5,0.1,0.9,0.3c0.3,0.2,0.5,0.4,0.7,0.7l9.7,16.8
				c0,0,0.1,0.1,0.1,0.2c0,0.2-0.1,0.2-0.3,0.2h-2.4c-0.3,0-0.6-0.1-0.9-0.3c-0.3-0.2-0.5-0.4-0.7-0.7l-8-13.5l-8,13.5
				c-0.3,0.6-0.8,0.9-1.6,1H779c-0.3,0-0.6-0.2-0.6-0.5L768.3,103.3z M804.9,128.4c-0.1,0.2-0.3,0.4-0.5,0.4c-0.2,0-0.3-0.1-0.4-0.2
				l-1.9-3.3c-0.1-0.2-0.1-0.3-0.1-0.4s0-0.2,0.1-0.3l7.2-21.4c0.1-0.3,0.2-0.5,0.3-0.6s0.3-0.2,0.5-0.2h3c0.1,0,0.2,0,0.3,0.1
				c0.1,0.1,0.2,0.2,0.2,0.4c0,0.1,0,0.2-0.1,0.3L804.9,128.4z"/>
			<path class="st3" d="M835.7,106.5c0-0.5,0.1-1,0.4-1.5c0.3-0.5,0.6-0.9,1-1.3c0.4-0.4,0.9-0.7,1.4-1s1-0.4,1.5-0.4h25.7
				c0.5,0,1,0.1,1.5,0.4c0.5,0.3,1,0.6,1.4,1c0.4,0.4,0.7,0.8,1,1.3c0.3,0.5,0.4,1,0.4,1.5v23.2c0,0.5-0.1,1-0.4,1.5
				c-0.3,0.5-0.6,0.9-1,1.3c-0.4,0.4-0.9,0.7-1.4,1c-0.5,0.3-1,0.4-1.5,0.4H840c-0.5,0-1-0.1-1.5-0.4c-0.5-0.3-1-0.6-1.4-1
				c-0.4-0.4-0.7-0.8-1-1.3c-0.3-0.5-0.4-1-0.4-1.5V106.5z M840.7,129.6h24.4v-23.1h-24.4V129.6z"/>
			<path class="st3" d="M898,103.5c0-0.3,0.1-0.6,0.3-0.8c0.2-0.2,0.5-0.3,0.8-0.3h19.2c1.4,0,2.7,0.3,3.9,0.8
				c1.2,0.5,2.3,1.2,3.2,2.1c0.9,0.9,1.6,1.9,2.2,3.1c0.5,1.2,0.8,2.4,0.8,3.8c0,1.1-0.2,2.2-0.6,3.2c-0.4,1-0.9,1.9-1.6,2.7
				c-0.7,0.8-1.5,1.5-2.4,2.1c-0.9,0.6-1.9,1-3,1.3l9.1,11.8c0.1,0.1,0.1,0.3,0.1,0.4c0,0.2-0.1,0.3-0.4,0.3h-4
				c-0.3,0-0.6-0.1-0.9-0.3c-0.3-0.2-0.6-0.4-0.8-0.7l-8.7-11.3h-7.5c-0.3,0-0.6-0.1-0.8-0.3c-0.2-0.2-0.3-0.5-0.3-0.8v-1.9
				c0-0.3,0.1-0.6,0.3-0.8c0.2-0.2,0.5-0.3,0.8-0.3h10c1.6,0,3-0.5,4.2-1.6c1.2-1.1,1.8-2.4,1.8-3.9c0-1.5-0.6-2.8-1.8-3.9
				c-1.2-1.1-2.6-1.6-4.2-1.6h-14.8v26.2c0,0.3-0.1,0.6-0.4,0.8c-0.2,0.2-0.5,0.3-0.9,0.3h-2.6c-0.3,0-0.6-0.1-0.8-0.3
				c-0.2-0.2-0.3-0.5-0.3-0.8V103.5z"/>
			<path class="st3" d="M954.7,103.5c0-0.3,0.1-0.6,0.3-0.8c0.2-0.2,0.5-0.3,0.8-0.3h2.6c0.3,0,0.6,0.1,0.8,0.3
				c0.2,0.2,0.3,0.5,0.3,0.8v11.1l26.8,18.4c0.5,0.3,0.7,0.6,0.7,0.7c0,0.1-0.1,0.2-0.3,0.2h-5.6c-0.5,0-1-0.2-1.5-0.6l-20-13.7
				v13.3c0,0.3-0.1,0.6-0.3,0.8c-0.2,0.2-0.5,0.3-0.8,0.3h-2.6c-0.3,0-0.6-0.1-0.8-0.3c-0.2-0.2-0.3-0.5-0.3-0.8V103.5z
				 M963.7,113.6c-0.1-0.1-0.2-0.2-0.2-0.4c0-0.2,0-0.3,0.1-0.4l14.4-10.1c0.3-0.2,0.5-0.3,0.7-0.4c0.2-0.1,0.5-0.1,0.9-0.1h5.2
				c0.2,0,0.3,0,0.3,0.1c0,0.1-0.2,0.3-0.4,0.5l-17.6,12.3c-0.2,0.1-0.3,0.1-0.4,0.1c-0.2,0-0.3,0-0.4-0.1L963.7,113.6z"/>
		</g>
	</g>
</g>
</svg>
