<?xml version="1.0" encoding="utf-8"?>
<!-- Generator: Adobe Illustrator 22.0.1, SVG Export Plug-In . SVG Version: 6.00 Build 0)  -->
<svg version="1.1" id="Layer_1" xmlns="http://www.w3.org/2000/svg" xmlns:xlink="http://www.w3.org/1999/xlink" x="0px" y="0px"
	 viewBox="0 0 227.3 237.8" style="enable-background:new 0 0 227.3 237.8;" xml:space="preserve">
<style type="text/css">
	.st0{stroke:#000000;stroke-miterlimit:10;}
	.st1{stroke:#000000;stroke-width:0.25;stroke-miterlimit:10;}
	.st2{fill:#FFFFFF;}
	.st3{fill:#FFFFFF;stroke:#FFFFFF;stroke-width:0.25;stroke-miterlimit:10;}
</style>
<g id="Layer_2_3_">
	<g id="BACKGROUNDS_3_">
		<path class="st0" d="M106,218.4c-8.9-16.5-17.7-33.2-26.4-49.8l-13-25l-12.9-25.1C45.1,101.8,36.6,85,28.2,68.3
			S11.3,34.7,2.9,17.8l-2.1-4.2h4.4l24.8,0.1l24.8,0.1c16.5,0.1,33.1,0.3,49.6,0.5c16.5,0.2,33.1,0.5,49.6,0.8
			c16.5,0.3,33.1,0.8,49.6,1.4c-16.5,0.6-33.1,1-49.6,1.3c-16.5,0.4-33.1,0.6-49.6,0.8c-16.5,0.2-33.1,0.4-49.6,0.5l-24.8,0.1
			L5.3,19.4l2.4-4.2C16,32,24.4,48.9,32.7,65.7s16.6,33.8,24.8,50.7l12.3,25.4L82,167.2C90.1,184.2,98.1,201.2,106,218.4z"/>
		<path class="st0" d="M24.2,27.9c8.8,16.6,17.3,33.3,25.9,50L62.9,103c2.1,4.2,4.2,8.4,6.3,12.6l6.3,12.6l6.3,12.6l6.3,12.6
			l12.5,25.2l12.5,25.3l12.4,25.3h-4.8l12.4-24.9l12.5-24.9l12.5-24.8l6.3-12.4l6.3-12.4l6.3-12.4c2.1-4.1,4.2-8.3,6.3-12.4
			l12.8-24.7c8.6-16.4,17.1-32.9,25.9-49.2c-7.7,16.9-15.7,33.7-23.6,50.5l-12,25.1c-2,4.2-4,8.4-6,12.5l-6.1,12.5l-6.1,12.5
			l-6.1,12.5l-12.2,25l-12.3,25l-12.3,24.9l-2.4,4.9l-2.4-4.9l-12.3-25.3l-12.3-25.4l-12.2-25.4l-6.1-12.7l-6.1-12.7l-6.1-12.7
			c-2-4.2-4-8.5-6-12.7l-12-25.5C39.8,62.1,31.9,45.1,24.2,27.9z"/>
		<path class="st0" d="M123.1,206.6c7.7-17.2,15.6-34.4,23.5-51.5l12-25.6l12.1-25.6c8-17.1,16.2-34.1,24.4-51S211.5,19,219.7,2
			l2.4,4.1l-24.8-0.1L172.6,6c-16.5-0.1-33-0.3-49.5-0.5c-16.5-0.2-33-0.5-49.5-0.8C57.1,4.4,40.6,4,24.1,3.4
			c16.5-0.6,33-1,49.5-1.3s33-0.6,49.5-0.8s33-0.4,49.5-0.5l24.7-0.1l24.8-0.1h4.4l-2,4.1c-8.2,17-16.5,33.9-24.8,50.8
			S183,89.2,174.5,106l-12.7,25.3l-12.8,25.2C140.5,173.2,131.9,190,123.1,206.6z"/>
	</g>
</g>
</svg>
