<?xml version="1.0" encoding="utf-8"?>
<!-- Generator: Adobe Illustrator 22.0.1, SVG Export Plug-In . SVG Version: 6.00 Build 0)  -->
<svg version="1.1" id="Layer_1" xmlns="http://www.w3.org/2000/svg" xmlns:xlink="http://www.w3.org/1999/xlink" x="0px" y="0px"
	 viewBox="0 0 850.6 567.2" style="enable-background:new 0 0 850.6 567.2;" xml:space="preserve">
<style type="text/css">
	.st0{stroke:#000000;stroke-miterlimit:10;}
	.st1{stroke:#000000;stroke-width:0.25;stroke-miterlimit:10;}
	.st2{fill:#FFFFFF;}
	.st3{fill:#FFFFFF;stroke:#FFFFFF;stroke-width:0.25;stroke-miterlimit:10;}
</style>
<g>
	<g id="Layer_2_5_">
		<g id="BACKGROUNDS_5_">
			<path class="st2" d="M414.7,396.6c-17.2-30.1-34-60.4-50.8-90.6l-25-45.5l-24.8-45.6c-16.5-30.4-32.9-60.9-49.2-91.5
				s-32.5-61.2-48.6-91.8l-4-7.6h8.6l47.7,0.1l47.7,0.2c31.8,0.2,63.6,0.5,95.4,0.9c31.8,0.3,63.6,0.9,95.4,1.5
				c31.8,0.6,63.6,1.4,95.4,2.5c-31.8,1.1-63.6,1.8-95.5,2.4c-31.8,0.7-63.6,1.2-95.4,1.5c-31.8,0.3-63.6,0.7-95.4,0.9l-47.7,0.2
				l-47.7,0.1l4.6-7.6c16.2,30.6,32.3,61.3,48.3,91.9s31.9,61.4,47.7,92.3l23.7,46.2l23.5,46.3C384,334.5,399.6,365.4,414.7,396.6z"
				/>
			<path class="st2" d="M257.2,49.9c16.9,30.2,33.4,60.6,49.9,91l24.6,45.7c4.1,7.6,8.2,15.3,12.2,22.9l12.2,22.9l12.2,22.9
				l12.1,22.9l24.1,45.9l24,46l23.9,46.1h-9.2l23.9-45.3l24-45.3l24.1-45.2l12.1-22.6l12.2-22.5l12.2-22.5c4.1-7.5,8.1-15,12.2-22.5
				l24.6-45c16.5-29.9,33-59.8,49.9-89.5c-14.9,30.8-30.1,61.3-45.4,91.9l-23.1,45.8c-3.8,7.6-7.7,15.2-11.6,22.8l-11.7,22.8
				l-11.7,22.8l-11.7,22.8l-23.5,45.5l-23.6,45.5l-23.8,45.4l-4.6,8.8l-4.5-8.9l-23.8-46.1l-23.6-46.2l-23.5-46.3l-11.7-23.1
				l-11.7-23.2l-11.7-23.2c-3.9-7.7-7.8-15.4-11.6-23.2l-23.1-46.5C287.4,112.2,272.1,81.2,257.2,49.9z"/>
			<path class="st2" d="M447.6,375.2c14.8-31.4,30.1-62.5,45.3-93.7l23-46.7l23.2-46.6c15.5-31,31.1-62,46.9-92.9
				s31.6-61.8,47.5-92.6l4.6,7.5l-47.6-0.1L542.9,10c-31.7-0.2-63.5-0.5-95.3-0.9c-31.8-0.3-63.5-0.9-95.3-1.5s-63.5-1.4-95.3-2.4
				c31.8-1.1,63.5-1.8,95.3-2.5s63.5-1.2,95.3-1.5s63.5-0.7,95.3-0.9l47.6-0.2L638.2,0h8.5l-3.9,7.5C626.9,38.4,611,69.2,595,100
				s-32.2,61.5-48.4,92.1l-24.4,46l-24.6,45.9C481.1,314.4,464.6,344.9,447.6,375.2z"/>
		</g>
	</g>
	<g>
		<g>
			<path class="st3" d="M0.1,531.8c0-0.4,0.1-0.7,0.4-1c0.3-0.3,0.6-0.4,1-0.4h31.4c0.4,0,0.7,0.1,1,0.4c0.3,0.3,0.4,0.6,0.4,1v2.2
				c0,0.4-0.1,0.7-0.4,1c-0.3,0.3-0.6,0.4-1,0.4H6.2v30.4c0,0.3-0.1,0.6-0.4,0.9c-0.3,0.3-0.6,0.4-1,0.4H1.5c-0.4,0-0.7-0.1-1-0.4
				c-0.3-0.3-0.4-0.6-0.4-0.9V531.8z M10.4,548.6c0-0.4,0.1-0.7,0.4-0.9c0.3-0.2,0.6-0.4,1-0.4h18.5c0.4,0,0.8,0.1,1,0.4
				c0.3,0.2,0.4,0.5,0.4,0.9v2.1c0,0.4-0.1,0.7-0.4,1c-0.3,0.3-0.6,0.4-1,0.4H11.9c-0.4,0-0.8-0.1-1-0.4c-0.3-0.3-0.4-0.6-0.4-1
				V548.6z"/>
			<path class="st3" d="M60.1,531.8c0-0.4,0.1-0.7,0.4-1c0.3-0.3,0.6-0.4,1-0.4h23.3c1.7,0,3.3,0.3,4.8,0.9c1.5,0.6,2.8,1.4,3.9,2.4
				c1.1,1,2,2.2,2.6,3.5c0.6,1.3,1,2.8,1,4.4c0,1.3-0.2,2.6-0.7,3.8c-0.5,1.2-1.1,2.2-1.9,3.2c-0.8,0.9-1.8,1.8-2.9,2.4
				c-1.1,0.7-2.4,1.2-3.6,1.5l11,13.7c0.1,0.1,0.2,0.3,0.2,0.5c0,0.2-0.2,0.4-0.5,0.4h-4.9c-0.4,0-0.7-0.1-1.1-0.3
				c-0.4-0.2-0.7-0.5-1-0.8L81,552.8h-9.1c-0.4,0-0.8-0.1-1-0.4s-0.4-0.5-0.4-0.9v-2.2c0-0.4,0.1-0.7,0.4-0.9s0.6-0.4,1-0.4H84
				c2,0,3.7-0.6,5.1-1.8c1.4-1.2,2.1-2.7,2.1-4.5c0-1.8-0.7-3.3-2.1-4.5c-1.4-1.2-3.1-1.8-5.1-1.8H66.1v30.4c0,0.4-0.1,0.7-0.4,0.9
				c-0.3,0.2-0.6,0.4-1,0.4h-3.1c-0.4,0-0.8-0.1-1-0.4c-0.3-0.2-0.4-0.5-0.4-0.9V531.8z"/>
			<path class="st3" d="M134.8,562.1h27.5c0.4,0,0.7,0.1,1,0.4c0.3,0.3,0.4,0.6,0.4,1v2.3c0,0.3-0.1,0.6-0.4,0.9
				c-0.3,0.3-0.6,0.4-1,0.4h-32.1c-0.4,0-0.7-0.1-1-0.4c-0.3-0.3-0.4-0.6-0.4-0.9v-33.9c0-0.4,0.1-0.7,0.4-1c0.3-0.3,0.6-0.4,1-0.4
				H162c0.4,0,0.8,0.1,1,0.4c0.3,0.3,0.4,0.6,0.4,1v2.3c0,0.3-0.1,0.6-0.4,0.9c-0.3,0.3-0.6,0.4-1,0.4h-27.1V562.1z M139.1,546.8
				c0-0.4,0.1-0.7,0.4-0.9c0.3-0.2,0.6-0.4,1-0.4h19.5c0.4,0,0.7,0.1,1,0.4c0.3,0.2,0.4,0.5,0.4,0.9v2.2c0,0.4-0.1,0.7-0.4,0.9
				c-0.3,0.2-0.6,0.4-1,0.4h-19.5c-0.4,0-0.8-0.1-1-0.4c-0.3-0.2-0.4-0.5-0.4-0.9V546.8z"/>
			<path class="st3" d="M193.5,531.7c0-0.4,0.1-0.7,0.4-0.9c0.3-0.2,0.6-0.4,1-0.4h3.3c0.4,0,0.7,0.1,1,0.4c0.3,0.2,0.4,0.5,0.4,0.9
				v34c0,0.3-0.1,0.6-0.4,0.9c-0.3,0.3-0.6,0.4-1,0.4h-3.3c-0.4,0-0.7-0.1-1-0.4c-0.3-0.3-0.4-0.6-0.4-0.9V531.7z"/>
			<path class="st3" d="M225.3,531.7c0-0.3,0.1-0.6,0.4-0.9c0.3-0.3,0.6-0.4,1-0.4h36.2c0.4,0,0.7,0.1,1,0.4
				c0.3,0.3,0.4,0.6,0.4,0.9v2.3c0,0.9-0.5,1.3-1.4,1.3h-36.2c-0.4,0-0.8-0.1-1-0.4c-0.3-0.3-0.4-0.6-0.4-1V531.7z M241.7,540.5
				c0-0.4,0.1-0.7,0.4-0.9c0.3-0.2,0.6-0.4,1-0.4h3.1c0.4,0,0.7,0.1,1,0.4c0.3,0.2,0.4,0.5,0.4,0.9v25.2c0,0.4-0.1,0.7-0.4,0.9
				c-0.3,0.2-0.6,0.4-1,0.4h-3.1c-0.4,0-0.8-0.1-1-0.4c-0.3-0.2-0.4-0.5-0.4-0.9V540.5z"/>
			<path class="st3" d="M309.5,547.8l17.8,18.1c0.3,0.2,0.4,0.5,0.4,0.8c0,0.2-0.2,0.4-0.5,0.4h-5.9c-0.4,0-0.8-0.2-1.2-0.6
				l-14.3-14.9l-13.3,14.9c-0.2,0.1-0.3,0.3-0.5,0.4c-0.2,0.1-0.4,0.2-0.6,0.2h-5.4c-0.4,0-0.5-0.1-0.5-0.4c0-0.2,0.1-0.5,0.4-0.7
				l31.7-34.8c0.3-0.4,0.7-0.6,1.1-0.6h5.4c0.4,0,0.6,0.1,0.6,0.4c0,0.1-0.1,0.4-0.4,0.7L309.5,547.8z M286,531.6
				c-0.3-0.2-0.4-0.5-0.4-0.8c0-0.2,0.2-0.4,0.5-0.4h5.7c0.4,0,0.7,0.2,1.2,0.6l9.6,9.9c0.1,0.2,0.2,0.3,0.2,0.4
				c0,0.1-0.1,0.3-0.2,0.4l-2.6,3c-0.2,0.1-0.3,0.2-0.5,0.2c-0.2,0-0.3-0.1-0.5-0.2L286,531.6z"/>
			<path class="st3" d="M431.1,531.8c0-0.4,0.1-0.7,0.4-1c0.3-0.3,0.6-0.4,1.1-0.4h2.6c0.4,0,0.8,0.1,1.1,0.4c0.3,0.3,0.4,0.6,0.4,1
				v33.9c0,0.4-0.1,0.7-0.4,0.9c-0.3,0.2-0.6,0.4-1,0.4h-2.9c-0.4,0-0.8-0.1-1.3-0.3c-0.5-0.2-0.9-0.5-1.2-0.8l-32.6-34.3
				c-0.3-0.2-0.4-0.5-0.4-0.8c0-0.2,0.2-0.4,0.5-0.4h4.7c0.4,0,0.7,0.2,1.2,0.6l27.8,29.4V531.8z M402.3,565.7
				c0,0.4-0.1,0.7-0.4,0.9c-0.3,0.2-0.6,0.4-1,0.4h-2.6c-0.4,0-0.8-0.1-1-0.4c-0.3-0.2-0.4-0.5-0.4-0.9v-27.8c0-0.3,0.1-0.4,0.3-0.4
				c0.2,0,0.5,0.2,0.9,0.6l3.6,3.9c0.4,0.4,0.5,0.8,0.5,1.1V565.7z"/>
			<path class="st3" d="M476.8,562.1h27.5c0.4,0,0.7,0.1,1,0.4c0.3,0.3,0.4,0.6,0.4,1v2.3c0,0.3-0.1,0.6-0.4,0.9
				c-0.3,0.3-0.6,0.4-1,0.4h-32.1c-0.4,0-0.7-0.1-1-0.4c-0.3-0.3-0.4-0.6-0.4-0.9v-33.9c0-0.4,0.1-0.7,0.4-1c0.3-0.3,0.6-0.4,1-0.4
				H504c0.4,0,0.8,0.1,1,0.4c0.3,0.3,0.4,0.6,0.4,1v2.3c0,0.3-0.1,0.6-0.4,0.9c-0.3,0.3-0.6,0.4-1,0.4h-27.1V562.1z M481.1,546.8
				c0-0.4,0.1-0.7,0.4-0.9c0.3-0.2,0.6-0.4,1-0.4H502c0.4,0,0.7,0.1,1,0.4c0.3,0.2,0.4,0.5,0.4,0.9v2.2c0,0.4-0.1,0.7-0.4,0.9
				c-0.3,0.2-0.6,0.4-1,0.4h-19.5c-0.4,0-0.8-0.1-1-0.4c-0.3-0.2-0.4-0.5-0.4-0.9V546.8z"/>
			<path class="st3" d="M527.1,531.7c0-0.3,0.1-0.6,0.4-0.9c0.3-0.3,0.6-0.4,1-0.4h36.2c0.4,0,0.7,0.1,1,0.4
				c0.3,0.3,0.4,0.6,0.4,0.9v2.3c0,0.9-0.5,1.3-1.4,1.3h-36.2c-0.4,0-0.8-0.1-1-0.4c-0.3-0.3-0.4-0.6-0.4-1V531.7z M543.5,540.5
				c0-0.4,0.1-0.7,0.4-0.9c0.3-0.2,0.6-0.4,1-0.4h3.1c0.4,0,0.7,0.1,1,0.4c0.3,0.2,0.4,0.5,0.4,0.9v25.2c0,0.4-0.1,0.7-0.4,0.9
				c-0.3,0.2-0.6,0.4-1,0.4H545c-0.4,0-0.8-0.1-1-0.4c-0.3-0.2-0.4-0.5-0.4-0.9V540.5z"/>
			<path class="st3" d="M585.1,531.6c-0.1-0.1-0.1-0.2-0.1-0.4c0-0.5,0.3-0.8,0.9-0.8h4.1c0.4,0,0.7,0.2,0.8,0.6l10.2,29.7l8.5-13.7
				c0.2-0.3,0.5-0.6,0.9-0.8c0.4-0.2,0.7-0.3,1.1-0.3h2.4c0.3,0,0.7,0.1,1,0.3c0.4,0.2,0.7,0.5,0.8,0.8l11.7,19.5
				c0.1,0,0.1,0.1,0.1,0.3c0,0.2-0.1,0.3-0.4,0.3h-2.9c-0.4,0-0.7-0.1-1.1-0.3c-0.4-0.2-0.6-0.5-0.9-0.8l-9.7-15.6l-9.7,15.6
				c-0.3,0.7-1,1-1.9,1.1h-2.8c-0.4,0-0.7-0.2-0.8-0.6L585.1,531.6z M629.4,560.7c-0.1,0.3-0.3,0.4-0.6,0.4c-0.2,0-0.4-0.1-0.5-0.3
				L626,557c-0.1-0.2-0.2-0.4-0.2-0.5s0-0.3,0.1-0.4l8.8-24.8c0.1-0.3,0.2-0.6,0.3-0.7c0.1-0.1,0.3-0.2,0.7-0.2h3.6
				c0.1,0,0.2,0,0.4,0.1c0.2,0.1,0.2,0.2,0.2,0.5c0,0.1,0,0.3-0.1,0.4L629.4,560.7z"/>
			<path class="st3" d="M666.8,535.3c0-0.6,0.2-1.1,0.5-1.7c0.3-0.6,0.7-1.1,1.2-1.5c0.5-0.4,1-0.8,1.7-1.1c0.6-0.3,1.2-0.5,1.9-0.5
				h31.2c0.6,0,1.2,0.2,1.9,0.5c0.6,0.3,1.2,0.7,1.7,1.1c0.5,0.4,0.9,1,1.2,1.5c0.3,0.6,0.5,1.1,0.5,1.7v26.9c0,0.6-0.2,1.1-0.5,1.7
				c-0.3,0.6-0.8,1.1-1.2,1.5c-0.5,0.4-1,0.8-1.7,1.1c-0.6,0.3-1.2,0.5-1.9,0.5h-31.2c-0.6,0-1.2-0.2-1.9-0.5
				c-0.6-0.3-1.2-0.7-1.7-1.1c-0.5-0.4-0.9-1-1.2-1.5c-0.3-0.6-0.5-1.1-0.5-1.7V535.3z M672.9,562.1h29.6v-26.8h-29.6V562.1z"/>
			<path class="st3" d="M742.4,531.8c0-0.4,0.1-0.7,0.4-1c0.3-0.3,0.6-0.4,1-0.4h23.3c1.7,0,3.3,0.3,4.8,0.9
				c1.5,0.6,2.8,1.4,3.9,2.4c1.1,1,2,2.2,2.6,3.5c0.6,1.3,1,2.8,1,4.4c0,1.3-0.2,2.6-0.7,3.8c-0.5,1.2-1.1,2.2-1.9,3.2
				c-0.8,0.9-1.8,1.8-2.9,2.4c-1.1,0.7-2.4,1.2-3.6,1.5l11,13.7c0.1,0.1,0.2,0.3,0.2,0.5c0,0.2-0.2,0.4-0.5,0.4h-4.9
				c-0.4,0-0.7-0.1-1.1-0.3c-0.4-0.2-0.7-0.5-1-0.8l-10.5-13.1h-9.1c-0.4,0-0.8-0.1-1-0.4s-0.4-0.5-0.4-0.9v-2.2
				c0-0.4,0.1-0.7,0.4-0.9s0.6-0.4,1-0.4h12.1c2,0,3.7-0.6,5.1-1.8c1.4-1.2,2.1-2.7,2.1-4.5c0-1.8-0.7-3.3-2.1-4.5
				c-1.4-1.2-3.1-1.8-5.1-1.8h-17.9v30.4c0,0.4-0.1,0.7-0.4,0.9c-0.3,0.2-0.6,0.4-1,0.4h-3.1c-0.4,0-0.8-0.1-1-0.4
				c-0.3-0.2-0.4-0.5-0.4-0.9V531.8z"/>
			<path class="st3" d="M811.1,531.8c0-0.4,0.1-0.7,0.4-1c0.3-0.3,0.6-0.4,1-0.4h3.2c0.4,0,0.7,0.1,1,0.4c0.3,0.3,0.4,0.6,0.4,1
				v12.8l32.5,21.3c0.6,0.4,0.9,0.7,0.9,0.8c0,0.1-0.1,0.2-0.4,0.2h-6.8c-0.6,0-1.2-0.2-1.9-0.7l-24.3-15.9v15.4
				c0,0.4-0.1,0.7-0.4,0.9c-0.3,0.2-0.6,0.4-1,0.4h-3.2c-0.4,0-0.8-0.1-1-0.4c-0.3-0.2-0.4-0.5-0.4-0.9V531.8z M822,543.5
				c-0.2-0.1-0.2-0.3-0.2-0.4c0-0.2,0.1-0.3,0.2-0.4l17.4-11.7c0.3-0.2,0.6-0.4,0.9-0.5c0.3-0.1,0.6-0.1,1.1-0.1h6.3
				c0.2,0,0.3,0,0.3,0.1c0,0.1-0.2,0.3-0.5,0.6L826,545.5c-0.2,0.1-0.4,0.1-0.5,0.1c-0.2,0-0.4,0-0.5-0.1L822,543.5z"/>
		</g>
	</g>
</g>
</svg>
