<svg version="1.1" id="rotate" xmlns="http://www.w3.org/2000/svg" xmlns:xlink="http://www.w3.org/1999/xlink" x="0px" y="0px" viewBox="0 0 58.5 58.2" enable-background="new 0 0 58.5 58.2" xml:space="preserve">
    <path fill="#FFFFFF" d="M29.3,58.2c-16.1,0-29.1-13.1-29.1-29.1c0-5.7,1.6-11.2,4.7-15.8l-4.6,0.4L0,9.7l11.1-1l1,11l-4,0.4
	l-0.3-3.8c-2.3,3.8-3.5,8.3-3.5,12.8c0,13.8,11.3,25.1,25.1,25.1c4.7,0,9.3-1.3,13.3-3.8l2.1,3.4C40.1,56.7,34.8,58.2,29.3,58.2z
	 M47.4,49.6l-0.9-11l4-0.3l0.3,3.8c2.3-3.9,3.6-8.3,3.6-12.9C54.5,15.3,43.2,4,29.3,4c-4.8,0-9.4,1.3-13.4,3.9l-2.1-3.4
	C18.4,1.6,23.8,0,29.3,0c16.1,0,29.1,13.1,29.1,29.1c0,5.7-1.7,11.3-4.8,16l4.5-0.4l0.3,4L47.4,49.6z"></path>
</svg>
